<?xml version="1.0" encoding="utf-8"?>
<!-- Generator: Adobe Illustrator 16.0.0, SVG Export Plug-In . SVG Version: 6.00 Build 0)  -->
<!DOCTYPE svg PUBLIC "-//W3C//DTD SVG 1.1//EN" "http://www.w3.org/Graphics/SVG/1.1/DTD/svg11.dtd">
<svg version="1.1" id="Layer_1" xmlns="http://www.w3.org/2000/svg" xmlns:xlink="http://www.w3.org/1999/xlink" x="0px" y="0px"
	 width="612px" height="411.195px" viewBox="0 0 612 411.195" enable-background="new 0 0 612 411.195" xml:space="preserve">
<g>
	<g>
		<defs>
			<rect id="SVGID_1_" x="178.263" width="388.177" height="394.309"/>
		</defs>
		<clipPath id="SVGID_2_">
			<use xlink:href="#SVGID_1_"  overflow="visible"/>
		</clipPath>
		<path clip-path="url(#SVGID_2_)" fill="none" stroke="#F9B543" stroke-width="0.81" stroke-miterlimit="10" d="M494.624,26.848
			c-158.504,0-286.997,128.493-286.997,286.997c0,158.505,128.493,286.997,286.997,286.997S781.621,472.35,781.621,313.845
			C781.621,155.341,653.128,26.848,494.624,26.848L494.624,26.848z"/>
		<path clip-path="url(#SVGID_2_)" fill="none" stroke="#178DA3" stroke-width="0.81" stroke-miterlimit="10" d="M482.937,29.115
			c-158.504,0-286.997,128.493-286.997,286.998c0,158.504,128.493,286.997,286.997,286.997
			c158.505,0,286.998-128.493,286.998-286.997C769.935,157.608,641.441,29.115,482.937,29.115L482.937,29.115z"/>
		<path clip-path="url(#SVGID_2_)" fill="none" stroke="#92C83E" stroke-width="0.81" stroke-miterlimit="10" d="M486.303,47.044
			c-158.504,0-286.997,128.493-286.997,286.997s128.493,286.997,286.997,286.997S773.3,492.545,773.3,334.041
			S644.807,47.044,486.303,47.044L486.303,47.044z"/>
		<path clip-path="url(#SVGID_2_)" fill="none" stroke="#F15827" stroke-width="0.81" stroke-miterlimit="10" d="M481.254,16.75
			c-158.504,0-286.997,128.493-286.997,286.997S322.75,590.744,481.254,590.744s286.997-128.493,286.997-286.997
			S639.758,16.75,481.254,16.75L481.254,16.75z"/>
		<path clip-path="url(#SVGID_2_)" fill="none" stroke="#003663" stroke-width="0.81" stroke-miterlimit="10" d="M506.499,38.629
			c-158.504,0-286.997,128.493-286.997,286.997s128.493,286.997,286.997,286.997S793.496,484.13,793.496,325.626
			S665.003,38.629,506.499,38.629L506.499,38.629z"/>
	</g>
	
		<line fill="none" stroke="#C7C8CA" stroke-width="0.81" stroke-linecap="round" stroke-linejoin="round" stroke-dasharray="0,2.4368" x1="288.699" y1="200.809" x2="536.036" y2="200.809"/>
	<path fill="none" stroke="#C7C8CA" stroke-width="0.81" stroke-linecap="round" stroke-linejoin="round" d="M286.262,200.809
		L286.262,200.809 M537.254,200.809L537.254,200.809"/>
	<path fill="#CA2032" d="M467.614,176.472v1.135l0.243,7.24h0.454l0.242-7.24v-1.135H467.614L467.614,176.472z M468.619,187.813
		v-1.377h-1.07v1.377H468.619L468.619,187.813z"/>
	<path fill="#003663" d="M360.346,187.813l-5.28-11.421h-0.811l-5.282,11.421h0.875l1.442-3.176h6.691l1.44,3.176H360.346
		L360.346,187.813z M357.624,183.875h-5.978l2.997-6.561L357.624,183.875L357.624,183.875z M370.702,183.681v-0.032
		c0-2.689-2.025-4.293-4.018-4.293c-1.636,0-2.688,0.956-3.401,2.042v-5.411h-0.794v11.826h0.794v-1.782
		c0.68,1.037,1.749,1.976,3.401,1.976C368.677,188.006,370.702,186.37,370.702,183.681L370.702,183.681z M369.844,183.713
		c0,2.221-1.441,3.532-3.239,3.532c-1.718,0-3.37-1.426-3.37-3.548v-0.032c0-2.105,1.652-3.548,3.37-3.548
		c1.732,0,3.239,1.393,3.239,3.563V183.713L369.844,183.713z M381.104,183.681v-0.032c0-2.316-1.782-4.293-4.229-4.293
		c-2.462,0-4.26,2.009-4.26,4.325v0.032c0,2.317,1.782,4.293,4.228,4.293C379.304,188.006,381.104,185.997,381.104,183.681
		L381.104,183.681z M380.244,183.713c0,1.944-1.409,3.548-3.37,3.548c-1.911,0-3.402-1.588-3.402-3.58v-0.032
		c0-1.944,1.41-3.547,3.37-3.547c1.912,0,3.402,1.587,3.402,3.579V183.713L380.244,183.713z M390.453,187.813v-8.263h-0.794v4.779
		c0,1.717-1.247,2.948-2.867,2.948c-1.669,0-2.624-1.118-2.624-2.819v-4.908h-0.794v5.055c0,1.977,1.215,3.401,3.305,3.401
		c1.507,0,2.431-0.761,2.98-1.732v1.539H390.453L390.453,187.813z M397.345,187.666v-0.745c-0.47,0.21-0.81,0.291-1.215,0.291
		c-0.956,0-1.653-0.421-1.653-1.603v-5.33h2.9v-0.729h-2.9v-2.641h-0.794v2.641h-1.197v0.729h1.197v5.411
		c0,1.57,1.037,2.268,2.317,2.268C396.518,187.958,396.923,187.86,397.345,187.666L397.345,187.666z M414.403,186.03l-0.567-0.551
		c-1.149,1.134-2.268,1.766-3.904,1.766c-2.706,0-4.796-2.236-4.796-5.103v-0.033c0-2.852,2.059-5.07,4.779-5.07
		c1.701,0,2.835,0.713,3.824,1.668l0.599-0.615c-1.166-1.068-2.381-1.814-4.406-1.814c-3.272,0-5.67,2.657-5.67,5.865v0.031
		c0,3.257,2.397,5.832,5.638,5.832C411.908,188.006,413.204,187.212,414.403,186.03L414.403,186.03z M424.46,183.681v-0.032
		c0-2.316-1.782-4.293-4.229-4.293c-2.463,0-4.261,2.009-4.261,4.325v0.032c0,2.317,1.782,4.293,4.229,4.293
		C422.661,188.006,424.46,185.997,424.46,183.681L424.46,183.681z M423.601,183.713c0,1.944-1.408,3.548-3.369,3.548
		c-1.911,0-3.402-1.588-3.402-3.58v-0.032c0-1.944,1.41-3.547,3.37-3.547c1.912,0,3.401,1.587,3.401,3.579V183.713L423.601,183.713z
		 M439.359,187.813v-5.007c0-2.073-1.216-3.45-3.175-3.45c-1.557,0-2.447,0.858-2.981,1.781c-0.454-0.954-1.345-1.781-2.787-1.781
		c-1.474,0-2.219,0.81-2.754,1.669v-1.475h-0.793v8.263h0.793v-4.764c0-1.669,1.167-2.965,2.641-2.965
		c1.475,0,2.414,1.053,2.414,2.771v4.957h0.794V183c0-1.846,1.215-2.916,2.608-2.916c1.522,0,2.446,1.037,2.446,2.819v4.909H439.359
		L439.359,187.813z M454.723,187.813v-5.007c0-2.073-1.215-3.45-3.176-3.45c-1.555,0-2.446,0.858-2.979,1.781
		c-0.454-0.954-1.346-1.781-2.787-1.781c-1.475,0-2.219,0.81-2.754,1.669v-1.475h-0.794v8.263h0.794v-4.764
		c0-1.669,1.167-2.965,2.641-2.965s2.414,1.053,2.414,2.771v4.957h0.793V183c0-1.846,1.215-2.916,2.609-2.916
		c1.521,0,2.445,1.037,2.445,2.819v4.909H454.723L454.723,187.813z M458.515,177.396v-1.085h-0.987v1.085H458.515L458.515,177.396z
		 M458.418,187.813v-8.263h-0.794v8.263H458.418L458.418,187.813z M465.351,187.666v-0.745c-0.471,0.21-0.811,0.291-1.216,0.291
		c-0.956,0-1.652-0.421-1.652-1.603v-5.33h2.899v-0.729h-2.899v-2.641h-0.794v2.641h-1.198v0.729h1.198v5.411
		c0,1.57,1.037,2.268,2.316,2.268C464.523,187.958,464.928,187.86,465.351,187.666L465.351,187.666z"/>
	<path fill="#717073" d="M322.423,289.889c0.873,0,1.432-0.377,1.899-0.898l-0.441-0.414c-0.369,0.396-0.828,0.694-1.422,0.694
		c-0.972,0-1.71-0.803-1.71-1.811v-0.018c0-0.999,0.72-1.801,1.665-1.801c0.63,0,1.044,0.315,1.413,0.702l0.459-0.485
		c-0.432-0.459-0.981-0.827-1.863-0.827c-1.358,0-2.384,1.115-2.384,2.429v0.019C320.039,288.783,321.064,289.889,322.423,289.889
		L322.423,289.889z M327.455,289.889c1.404,0,2.438-1.114,2.438-2.429v-0.018c0-1.314-1.025-2.411-2.421-2.411
		c-1.404,0-2.43,1.115-2.43,2.429v0.019C325.043,288.792,326.059,289.889,327.455,289.889L327.455,289.889z M327.473,289.271
		c-0.981,0-1.72-0.812-1.72-1.811v-0.018c0-0.981,0.693-1.801,1.702-1.801c0.981,0,1.728,0.819,1.728,1.818v0.019
		C329.183,288.459,328.481,289.271,327.473,289.271L327.473,289.271z M331.146,289.781h0.691v-2.655
		c0-0.854,0.559-1.467,1.297-1.467s1.197,0.513,1.197,1.386v2.736h0.692V287.1c0-0.919,0.575-1.44,1.278-1.44
		c0.756,0,1.206,0.504,1.206,1.404v2.718h0.692v-2.88c0-1.152-0.656-1.87-1.728-1.87c-0.811,0-1.306,0.413-1.639,0.925
		c-0.251-0.521-0.737-0.925-1.493-0.925c-0.784,0-1.197,0.422-1.504,0.88v-0.781h-0.691V289.781L331.146,289.781z M339.704,289.781
		h0.692v-2.655c0-0.854,0.558-1.467,1.297-1.467c0.737,0,1.196,0.513,1.196,1.386v2.736h0.692V287.1c0-0.919,0.576-1.44,1.279-1.44
		c0.756,0,1.206,0.504,1.206,1.404v2.718h0.691v-2.88c0-1.152-0.655-1.87-1.727-1.87c-0.812,0-1.307,0.413-1.639,0.925
		c-0.252-0.521-0.737-0.925-1.493-0.925c-0.784,0-1.198,0.422-1.504,0.88v-0.781h-0.692V289.781L339.704,289.781z M349.972,289.88
		c0.803,0,1.279-0.403,1.595-0.906v0.808h0.683v-4.651h-0.683v2.663c0,0.874-0.604,1.459-1.396,1.459
		c-0.819,0-1.287-0.54-1.287-1.403v-2.719h-0.691v2.89C348.191,289.126,348.847,289.88,349.972,289.88L349.972,289.88z
		 M353.807,289.781h0.692v-2.664c0-0.873,0.594-1.458,1.396-1.458c0.819,0,1.287,0.54,1.287,1.404v2.718h0.692v-2.889
		c0-1.107-0.656-1.861-1.781-1.861c-0.802,0-1.288,0.404-1.594,0.907v-0.809h-0.692V289.781L353.807,289.781z M359.369,284.111
		h0.791v-0.763h-0.791V284.111L359.369,284.111z M359.414,289.781h0.692v-4.651h-0.692V289.781L359.414,289.781z M363.274,289.862
		c0.333,0,0.594-0.071,0.837-0.197v-0.594c-0.243,0.118-0.441,0.163-0.675,0.163c-0.469,0-0.783-0.208-0.783-0.775v-2.719h1.476
		v-0.61h-1.476v-1.403h-0.692v1.403h-0.647v0.61h0.647v2.809C361.961,289.494,362.527,289.862,363.274,289.862L363.274,289.862z
		 M367.342,289.009l-1.69-3.879h-0.766l2.114,4.636c-0.279,0.656-0.54,0.872-0.954,0.872c-0.296,0-0.503-0.054-0.728-0.171
		l-0.234,0.549c0.315,0.152,0.604,0.232,0.989,0.232c0.702,0,1.151-0.35,1.548-1.312l1.953-4.807h-0.738L367.342,289.009
		L367.342,289.009z M373.373,289.781h0.691v-1.854c0-1.403,0.827-2.133,1.845-2.133h0.054v-0.745
		c-0.882-0.036-1.557,0.521-1.898,1.294v-1.213h-0.691V289.781L373.373,289.781z M378.854,289.889c0.883,0,1.449-0.35,1.917-0.871
		l-0.433-0.388c-0.377,0.396-0.828,0.658-1.467,0.658c-0.828,0-1.539-0.568-1.638-1.577h3.689c0.009-0.08,0.009-0.134,0.009-0.224
		c0-1.359-0.791-2.456-2.169-2.456c-1.287,0-2.23,1.079-2.23,2.42v0.018C376.532,288.909,377.575,289.889,378.854,289.889
		L378.854,289.889z M377.233,287.2c0.09-0.91,0.701-1.586,1.512-1.586c0.927,0,1.414,0.739,1.486,1.586H377.233L377.233,287.2z
		 M383.687,289.871c0.928,0,1.654-0.512,1.654-1.394v-0.019c0-0.837-0.771-1.116-1.493-1.332c-0.621-0.188-1.197-0.359-1.197-0.801
		v-0.018c0-0.388,0.352-0.677,0.9-0.677c0.45,0,0.946,0.171,1.377,0.451l0.315-0.521c-0.478-0.315-1.107-0.513-1.674-0.513
		c-0.919,0-1.583,0.53-1.583,1.331v0.019c0,0.854,0.809,1.106,1.538,1.313c0.611,0.171,1.162,0.352,1.162,0.819v0.018
		c0,0.45-0.406,0.739-0.965,0.739c-0.549,0-1.106-0.217-1.61-0.595l-0.351,0.496C382.282,289.611,383.021,289.871,383.687,289.871
		L383.687,289.871z M388.753,289.889c1.404,0,2.438-1.114,2.438-2.429v-0.018c0-1.314-1.025-2.411-2.42-2.411
		c-1.404,0-2.431,1.115-2.431,2.429v0.019C386.341,288.792,387.357,289.889,388.753,289.889L388.753,289.889z M388.771,289.271
		c-0.981,0-1.721-0.812-1.721-1.811v-0.018c0-0.981,0.694-1.801,1.702-1.801c0.981,0,1.729,0.819,1.729,1.818v0.019
		C390.481,288.459,389.779,289.271,388.771,289.271L388.771,289.271z M394.153,289.88c0.801,0,1.277-0.403,1.593-0.906v0.808h0.683
		v-4.651h-0.683v2.663c0,0.874-0.603,1.459-1.396,1.459c-0.818,0-1.287-0.54-1.287-1.403v-2.719h-0.692v2.89
		C392.371,289.126,393.027,289.88,394.153,289.88L394.153,289.88z M397.987,289.781h0.691v-1.854c0-1.403,0.828-2.133,1.846-2.133
		h0.054v-0.745c-0.882-0.036-1.557,0.521-1.899,1.294v-1.213h-0.691V289.781L397.987,289.781z M403.53,289.889
		c0.873,0,1.431-0.377,1.898-0.898l-0.44-0.414c-0.369,0.396-0.828,0.694-1.422,0.694c-0.973,0-1.71-0.803-1.71-1.811v-0.018
		c0-0.999,0.72-1.801,1.665-1.801c0.63,0,1.044,0.315,1.413,0.702l0.458-0.485c-0.432-0.459-0.98-0.827-1.862-0.827
		c-1.359,0-2.383,1.115-2.383,2.429v0.019C401.147,288.783,402.171,289.889,403.53,289.889L403.53,289.889z M408.472,289.889
		c0.883,0,1.449-0.35,1.917-0.871l-0.432-0.388c-0.378,0.396-0.828,0.658-1.467,0.658c-0.828,0-1.54-0.568-1.64-1.577h3.69
		c0.009-0.08,0.009-0.134,0.009-0.224c0-1.359-0.79-2.456-2.168-2.456c-1.288,0-2.23,1.079-2.23,2.42v0.018
		C406.151,288.909,407.194,289.889,408.472,289.889L408.472,289.889z M406.851,287.2c0.091-0.91,0.703-1.586,1.514-1.586
		c0.927,0,1.414,0.739,1.486,1.586H406.851L406.851,287.2z M413.305,289.871c0.928,0,1.655-0.512,1.655-1.394v-0.019
		c0-0.837-0.773-1.116-1.493-1.332c-0.621-0.188-1.198-0.359-1.198-0.801v-0.018c0-0.388,0.353-0.677,0.901-0.677
		c0.45,0,0.945,0.171,1.377,0.451l0.315-0.521c-0.478-0.315-1.107-0.513-1.674-0.513c-0.92,0-1.584,0.53-1.584,1.331v0.019
		c0,0.854,0.809,1.106,1.539,1.313c0.611,0.171,1.16,0.352,1.16,0.819v0.018c0,0.45-0.404,0.739-0.963,0.739
		c-0.549,0-1.107-0.217-1.61-0.595l-0.351,0.496C411.901,289.611,412.639,289.871,413.305,289.871L413.305,289.871z
		 M420.504,289.862c0.333,0,0.594-0.071,0.837-0.197v-0.594c-0.243,0.118-0.44,0.163-0.675,0.163c-0.468,0-0.783-0.208-0.783-0.775
		v-2.719h1.477v-0.61h-1.477v-1.403h-0.691v1.403h-0.648v0.61h0.648v2.809C419.191,289.494,419.757,289.862,420.504,289.862
		L420.504,289.862z M424.573,289.889c1.404,0,2.438-1.114,2.438-2.429v-0.018c0-1.314-1.024-2.411-2.42-2.411
		c-1.404,0-2.43,1.115-2.43,2.429v0.019C422.161,288.792,423.177,289.889,424.573,289.889L424.573,289.889z M424.591,289.271
		c-0.981,0-1.72-0.812-1.72-1.811v-0.018c0-0.981,0.693-1.801,1.702-1.801c0.98,0,1.728,0.819,1.728,1.818v0.019
		C426.301,288.459,425.599,289.271,424.591,289.271L424.591,289.271z M432.501,289.871c0.928,0,1.656-0.512,1.656-1.394v-0.019
		c0-0.837-0.773-1.116-1.493-1.332c-0.622-0.188-1.198-0.359-1.198-0.801v-0.018c0-0.388,0.352-0.677,0.9-0.677
		c0.451,0,0.945,0.171,1.378,0.451l0.313-0.521c-0.476-0.315-1.105-0.513-1.674-0.513c-0.918,0-1.583,0.53-1.583,1.331v0.019
		c0,0.854,0.81,1.106,1.538,1.313c0.613,0.171,1.162,0.352,1.162,0.819v0.018c0,0.45-0.405,0.739-0.963,0.739
		c-0.55,0-1.108-0.217-1.611-0.595l-0.351,0.496C431.098,289.611,431.835,289.871,432.501,289.871L432.501,289.871z
		 M435.445,291.221h0.691v-2.329c0.36,0.521,0.918,0.988,1.782,0.988c1.126,0,2.223-0.898,2.223-2.42v-0.018
		c0-1.53-1.105-2.411-2.223-2.411c-0.854,0-1.404,0.476-1.782,1.034v-0.936h-0.691V291.221L435.445,291.221z M437.793,289.261
		c-0.864,0-1.683-0.72-1.683-1.8v-0.018c0-1.063,0.818-1.793,1.683-1.793c0.883,0,1.639,0.703,1.639,1.801v0.018
		C439.432,288.595,438.694,289.261,437.793,289.261L437.793,289.261z M441.421,289.781h0.692v-1.854
		c0-1.403,0.828-2.133,1.845-2.133h0.054v-0.745c-0.882-0.036-1.557,0.521-1.898,1.294v-1.213h-0.692V289.781L441.421,289.781z
		 M446.901,289.889c0.883,0,1.449-0.35,1.917-0.871l-0.432-0.388c-0.378,0.396-0.827,0.658-1.468,0.658
		c-0.828,0-1.539-0.568-1.638-1.577h3.689c0.01-0.08,0.01-0.134,0.01-0.224c0-1.359-0.791-2.456-2.169-2.456
		c-1.287,0-2.231,1.079-2.231,2.42v0.018C444.58,288.909,445.623,289.889,446.901,289.889L446.901,289.889z M445.281,287.2
		c0.09-0.91,0.702-1.586,1.512-1.586c0.928,0,1.414,0.739,1.486,1.586H445.281L445.281,287.2z M451.581,289.88
		c0.819,0,1.36-0.377,1.684-0.8v0.701h0.665v-2.843c0-0.595-0.161-1.044-0.476-1.359c-0.342-0.342-0.846-0.512-1.504-0.512
		c-0.675,0-1.18,0.151-1.692,0.386l0.207,0.567c0.433-0.198,0.864-0.344,1.413-0.344c0.874,0,1.387,0.434,1.387,1.271v0.162
		c-0.414-0.117-0.838-0.197-1.432-0.197c-1.179,0-1.988,0.521-1.988,1.501v0.018C449.845,289.386,450.717,289.88,451.581,289.88
		L451.581,289.88z M451.716,289.333c-0.63,0-1.17-0.343-1.17-0.928v-0.019c0-0.585,0.486-0.964,1.359-0.964
		c0.567,0,1.026,0.1,1.369,0.199v0.45C453.274,288.811,452.572,289.333,451.716,289.333L451.716,289.333z M457.359,289.88
		c0.854,0,1.404-0.476,1.782-1.034v0.936h0.692v-6.568h-0.692v2.807c-0.359-0.521-0.919-0.988-1.782-0.988
		c-1.116,0-2.223,0.897-2.223,2.419v0.018C455.137,288.999,456.243,289.88,457.359,289.88L457.359,289.88z M457.485,289.261
		c-0.873,0-1.639-0.702-1.639-1.801v-0.018c0-1.125,0.738-1.792,1.639-1.792c0.863,0,1.684,0.721,1.684,1.792v0.018
		C459.169,288.531,458.349,289.261,457.485,289.261L457.485,289.261z M465.315,289.817h0.611l1.26-3.671l1.252,3.671h0.603
		l1.637-4.688h-0.72l-1.223,3.735l-1.26-3.753h-0.576l-1.251,3.753l-1.225-3.735h-0.737L465.315,289.817L465.315,289.817z
		 M471.831,289.781h0.692v-2.664c0-0.873,0.595-1.458,1.396-1.458c0.819,0,1.287,0.54,1.287,1.404v2.718h0.692v-2.889
		c0-1.107-0.656-1.861-1.781-1.861c-0.801,0-1.287,0.404-1.594,0.907v-2.726h-0.692V289.781L471.831,289.781z M478.761,289.88
		c0.819,0,1.359-0.377,1.684-0.8v0.701h0.665v-2.843c0-0.595-0.161-1.044-0.477-1.359c-0.342-0.342-0.846-0.512-1.503-0.512
		c-0.675,0-1.18,0.151-1.691,0.386l0.205,0.567c0.433-0.198,0.865-0.344,1.414-0.344c0.873,0,1.387,0.434,1.387,1.271v0.162
		c-0.414-0.117-0.837-0.197-1.432-0.197c-1.18,0-1.988,0.521-1.988,1.501v0.018C477.024,289.386,477.896,289.88,478.761,289.88
		L478.761,289.88z M478.896,289.333c-0.63,0-1.17-0.343-1.17-0.928v-0.019c0-0.585,0.486-0.964,1.359-0.964
		c0.567,0,1.026,0.1,1.368,0.199v0.45C480.453,288.811,479.751,289.333,478.896,289.333L478.896,289.333z M484.097,289.862
		c0.333,0,0.595-0.071,0.838-0.197v-0.594c-0.243,0.118-0.441,0.163-0.676,0.163c-0.468,0-0.783-0.208-0.783-0.775v-2.719h1.477
		v-0.61h-1.477v-1.403h-0.69v1.403h-0.648v0.61h0.648v2.809C482.785,289.494,483.351,289.862,484.097,289.862L484.097,289.862z
		 M490.11,289.817h0.611l1.261-3.671l1.251,3.671h0.602l1.638-4.688h-0.72l-1.224,3.735l-1.259-3.753h-0.576l-1.251,3.753
		l-1.225-3.735h-0.737L490.11,289.817L490.11,289.817z M498.525,289.889c1.403,0,2.438-1.114,2.438-2.429v-0.018
		c0-1.314-1.024-2.411-2.42-2.411c-1.405,0-2.43,1.115-2.43,2.429v0.019C496.113,288.792,497.129,289.889,498.525,289.889
		L498.525,289.889z M498.543,289.271c-0.981,0-1.72-0.812-1.72-1.811v-0.018c0-0.981,0.692-1.801,1.702-1.801
		c0.98,0,1.728,0.819,1.728,1.818v0.019C500.253,288.459,499.551,289.271,498.543,289.271L498.543,289.271z M502.215,289.781h0.692
		v-1.854c0-1.403,0.828-2.133,1.845-2.133h0.054v-0.745c-0.882-0.036-1.557,0.521-1.898,1.294v-1.213h-0.692V289.781
		L502.215,289.781z M505.86,289.781h0.691v-1.214l0.945-0.954l1.665,2.168h0.828l-2.017-2.654l1.953-1.997h-0.863l-2.512,2.618
		v-4.535h-0.691V289.781L505.86,289.781z M512.521,289.871c0.927,0,1.654-0.512,1.654-1.394v-0.019c0-0.837-0.772-1.116-1.493-1.332
		c-0.622-0.188-1.197-0.359-1.197-0.801v-0.018c0-0.388,0.351-0.677,0.9-0.677c0.45,0,0.945,0.171,1.377,0.451l0.314-0.521
		c-0.476-0.315-1.106-0.513-1.673-0.513c-0.919,0-1.584,0.53-1.584,1.331v0.019c0,0.854,0.809,1.106,1.538,1.313
		c0.612,0.171,1.161,0.352,1.161,0.819v0.018c0,0.45-0.404,0.739-0.963,0.739c-0.55,0-1.107-0.217-1.61-0.595l-0.352,0.496
		C511.116,289.611,511.853,289.871,512.521,289.871L512.521,289.871z"/>
	<path fill="#F15827" d="M301.778,287.873l0.647,1.908h0.836l-2.068-6.064h-0.945l-2.06,6.064h0.809l0.63-1.908H301.778
		L301.778,287.873z M299.789,287.263l0.594-1.755c0.117-0.37,0.216-0.738,0.307-1.1h0.018c0.09,0.352,0.18,0.712,0.315,1.108
		l0.594,1.746H299.789L299.789,287.263z M304.101,289.781h0.79v-6.388h-0.79V289.781L304.101,289.781z M307.015,289.781v-4.354
		h-0.79v4.354H307.015L307.015,289.781z M306.62,283.708c-0.288,0-0.494,0.215-0.494,0.494c0,0.27,0.197,0.485,0.477,0.485
		c0.314,0,0.512-0.216,0.503-0.485C307.105,283.923,306.917,283.708,306.62,283.708L306.62,283.708z M311.39,285.427l-0.035,0.655
		h-0.019c-0.188-0.358-0.603-0.754-1.358-0.754c-1,0-1.963,0.836-1.963,2.313c0,1.205,0.773,2.122,1.854,2.122
		c0.675,0,1.143-0.322,1.386-0.727h0.019v0.485c0,1.098-0.595,1.521-1.404,1.521c-0.54,0-0.991-0.163-1.278-0.343l-0.198,0.603
		c0.351,0.234,0.928,0.359,1.449,0.359c0.549,0,1.161-0.125,1.584-0.521c0.423-0.379,0.62-0.99,0.62-1.988v-2.53
		c0-0.53,0.019-0.881,0.036-1.196H311.39L311.39,285.427z M311.265,287.929c0,0.136-0.019,0.288-0.063,0.424
		c-0.171,0.504-0.612,0.81-1.098,0.81c-0.855,0-1.288-0.711-1.288-1.566c0-1.009,0.541-1.648,1.297-1.648
		c0.576,0,0.963,0.379,1.106,0.838c0.036,0.108,0.046,0.225,0.046,0.36V287.929L311.265,287.929z M313.307,289.781h0.791v-2.619
		c0-0.135,0.019-0.27,0.055-0.369c0.135-0.44,0.541-0.81,1.063-0.81c0.747,0,1.008,0.585,1.008,1.287v2.511h0.791v-2.601
		c0-1.493-0.935-1.853-1.538-1.853c-0.72,0-1.225,0.404-1.44,0.817h-0.019l-0.045-0.719h-0.7c0.026,0.359,0.035,0.729,0.035,1.179
		V289.781L313.307,289.781z"/>
	<path fill="#717073" d="M331.325,279.089c0.882,0,1.449-0.35,1.916-0.872l-0.431-0.387c-0.379,0.396-0.828,0.658-1.468,0.658
		c-0.829,0-1.54-0.568-1.639-1.577h3.689c0.01-0.08,0.01-0.134,0.01-0.224c0-1.359-0.791-2.456-2.169-2.456
		c-1.287,0-2.231,1.079-2.231,2.42v0.018C329.003,278.109,330.046,279.089,331.325,279.089L331.325,279.089z M329.704,276.4
		c0.09-0.91,0.702-1.586,1.512-1.586c0.929,0,1.414,0.738,1.486,1.586H329.704L329.704,276.4z M334.88,278.981h0.692v-4.051h1.468
		v-0.592h-1.477v-0.376c0-0.662,0.27-0.984,0.81-0.984c0.234,0,0.423,0.045,0.676,0.116v-0.602
		c-0.226-0.081-0.441-0.116-0.766-0.116c-0.423,0-0.765,0.125-0.999,0.359c-0.26,0.26-0.404,0.663-0.404,1.19v0.403h-0.639v0.601
		h0.639V278.981L334.88,278.981z M338.192,278.981h0.683v-4.051h1.467v-0.592h-1.467v-0.376c0-0.662,0.261-0.984,0.811-0.984
		c0.233,0,0.423,0.045,0.665,0.116v-0.602c-0.216-0.081-0.44-0.116-0.765-0.116c-0.423,0-0.756,0.125-0.999,0.359
		c-0.26,0.26-0.395,0.663-0.395,1.19v0.403h-0.64v0.601h0.64V278.981L338.192,278.981z M343.177,279.089
		c0.884,0,1.45-0.35,1.917-0.872l-0.431-0.387c-0.378,0.396-0.828,0.658-1.468,0.658c-0.828,0-1.539-0.568-1.639-1.577h3.69
		c0.009-0.08,0.009-0.134,0.009-0.224c0-1.359-0.791-2.456-2.169-2.456c-1.287,0-2.23,1.079-2.23,2.42v0.018
		C340.856,278.109,341.899,279.089,343.177,279.089L343.177,279.089z M341.557,276.4c0.091-0.91,0.702-1.586,1.513-1.586
		c0.928,0,1.414,0.738,1.485,1.586H341.557L341.557,276.4z M348.568,279.089c0.873,0,1.431-0.377,1.898-0.898l-0.44-0.414
		c-0.369,0.396-0.828,0.693-1.422,0.693c-0.973,0-1.711-0.802-1.711-1.81v-0.018c0-0.999,0.721-1.802,1.665-1.802
		c0.631,0,1.045,0.316,1.413,0.703l0.459-0.485c-0.432-0.46-0.98-0.827-1.862-0.827c-1.359,0-2.385,1.114-2.385,2.429v0.018
		C346.184,277.983,347.209,279.089,348.568,279.089L348.568,279.089z M353.167,279.063c0.333,0,0.594-0.071,0.837-0.197v-0.593
		c-0.243,0.117-0.44,0.162-0.675,0.162c-0.468,0-0.783-0.208-0.783-0.775v-2.719h1.477v-0.61h-1.477v-1.404h-0.691v1.404h-0.648
		v0.61h0.648v2.809C351.854,278.694,352.42,279.063,353.167,279.063L353.167,279.063z M355.265,273.312h0.791v-0.764h-0.791V273.312
		L355.265,273.312z M355.31,278.981h0.692v-4.651h-0.692V278.981L355.31,278.981z M359.17,279.018h0.612l2.024-4.688h-0.747
		l-1.574,3.861l-1.566-3.861h-0.764L359.17,279.018L359.17,279.018z M364.66,279.089c0.882,0,1.449-0.35,1.917-0.872l-0.432-0.387
		c-0.378,0.396-0.828,0.658-1.468,0.658c-0.828,0-1.54-0.568-1.639-1.577h3.69c0.009-0.08,0.009-0.134,0.009-0.224
		c0-1.359-0.79-2.456-2.168-2.456c-1.287,0-2.231,1.079-2.231,2.42v0.018C362.339,278.109,363.382,279.089,364.66,279.089
		L364.66,279.089z M363.039,276.4c0.091-0.91,0.703-1.586,1.513-1.586c0.928,0,1.414,0.738,1.486,1.586H363.039L363.039,276.4z
		 M370.654,280.421h0.691v-2.33c0.36,0.522,0.919,0.989,1.783,0.989c1.125,0,2.222-0.899,2.222-2.42v-0.018
		c0-1.53-1.105-2.411-2.222-2.411c-0.854,0-1.405,0.476-1.783,1.034v-0.936h-0.691V280.421L370.654,280.421z M373.003,278.461
		c-0.864,0-1.684-0.72-1.684-1.8v-0.018c0-1.063,0.819-1.793,1.684-1.793c0.882,0,1.638,0.702,1.638,1.801v0.018
		C374.641,277.795,373.903,278.461,373.003,278.461L373.003,278.461z M376.63,278.981h0.692v-1.854c0-1.403,0.828-2.133,1.845-2.133
		h0.054v-0.745c-0.882-0.036-1.557,0.521-1.898,1.294v-1.213h-0.692V278.981L376.63,278.981z M381.437,279.08
		c0.818,0,1.358-0.377,1.683-0.8v0.701h0.665v-2.844c0-0.594-0.162-1.044-0.477-1.358c-0.342-0.342-0.846-0.512-1.503-0.512
		c-0.675,0-1.18,0.151-1.691,0.386l0.206,0.566c0.432-0.197,0.864-0.343,1.414-0.343c0.873,0,1.386,0.434,1.386,1.271v0.162
		c-0.414-0.117-0.837-0.197-1.431-0.197c-1.181,0-1.989,0.52-1.989,1.501v0.018C379.699,278.586,380.571,279.08,381.437,279.08
		L381.437,279.08z M381.571,278.533c-0.631,0-1.171-0.343-1.171-0.928v-0.019c0-0.585,0.485-0.964,1.359-0.964
		c0.567,0,1.026,0.099,1.368,0.199v0.45C383.128,278.01,382.426,278.533,381.571,278.533L381.571,278.533z M387.357,279.089
		c0.873,0,1.431-0.377,1.898-0.898l-0.44-0.414c-0.369,0.396-0.828,0.693-1.423,0.693c-0.972,0-1.709-0.802-1.709-1.81v-0.018
		c0-0.999,0.72-1.802,1.664-1.802c0.631,0,1.044,0.316,1.413,0.703l0.459-0.485c-0.432-0.46-0.98-0.827-1.862-0.827
		c-1.359,0-2.385,1.114-2.385,2.429v0.018C384.973,277.983,385.998,279.089,387.357,279.089L387.357,279.089z M391.956,279.063
		c0.333,0,0.594-0.071,0.837-0.197v-0.593c-0.243,0.117-0.441,0.162-0.675,0.162c-0.468,0-0.783-0.208-0.783-0.775v-2.719h1.477
		v-0.61h-1.477v-1.404h-0.691v1.404h-0.648v0.61h0.648v2.809C390.644,278.694,391.209,279.063,391.956,279.063L391.956,279.063z
		 M394.054,273.312h0.791v-0.764h-0.791V273.312L394.054,273.312z M394.099,278.981h0.692v-4.651h-0.692V278.981L394.099,278.981z
		 M398.499,279.089c0.873,0,1.431-0.377,1.899-0.898l-0.441-0.414c-0.369,0.396-0.828,0.693-1.422,0.693
		c-0.972,0-1.71-0.802-1.71-1.81v-0.018c0-0.999,0.72-1.802,1.665-1.802c0.63,0,1.044,0.316,1.413,0.703l0.459-0.485
		c-0.433-0.46-0.981-0.827-1.863-0.827c-1.359,0-2.384,1.114-2.384,2.429v0.018C396.115,277.983,397.14,279.089,398.499,279.089
		L398.499,279.089z M403.441,279.089c0.882,0,1.448-0.35,1.916-0.872l-0.432-0.387c-0.378,0.396-0.828,0.658-1.467,0.658
		c-0.829,0-1.54-0.568-1.639-1.577h3.689c0.01-0.08,0.01-0.134,0.01-0.224c0-1.359-0.791-2.456-2.169-2.456
		c-1.287,0-2.231,1.079-2.231,2.42v0.018C401.119,278.109,402.162,279.089,403.441,279.089L403.441,279.089z M401.82,276.4
		c0.09-0.91,0.702-1.586,1.513-1.586c0.927,0,1.413,0.738,1.485,1.586H401.82L401.82,276.4z M408.273,279.071
		c0.928,0,1.655-0.512,1.655-1.395v-0.018c0-0.837-0.772-1.116-1.492-1.332c-0.622-0.189-1.198-0.36-1.198-0.801v-0.019
		c0-0.387,0.351-0.676,0.899-0.676c0.451,0,0.946,0.171,1.378,0.451l0.314-0.522c-0.476-0.314-1.106-0.512-1.674-0.512
		c-0.918,0-1.583,0.53-1.583,1.331v0.019c0,0.854,0.809,1.106,1.538,1.313c0.612,0.171,1.162,0.351,1.162,0.819v0.018
		c0,0.45-0.405,0.739-0.964,0.739c-0.55,0-1.107-0.217-1.61-0.595l-0.352,0.496C406.869,278.812,407.607,279.071,408.273,279.071
		L408.273,279.071z"/>
	<path fill="#92C83E" d="M298.647,272.917v6.064h0.78v-6.064H298.647L298.647,272.917z M303.741,272.593v2.6h-0.019
		c-0.198-0.351-0.648-0.664-1.314-0.664c-1.063,0-1.961,0.89-1.952,2.339c0,1.323,0.808,2.213,1.862,2.213
		c0.711,0,1.241-0.368,1.484-0.854h0.019l0.036,0.755h0.71c-0.027-0.297-0.036-0.738-0.036-1.125v-5.264H303.741L303.741,272.593z
		 M303.741,277.154c0,0.126-0.009,0.233-0.036,0.342c-0.146,0.595-0.631,0.947-1.162,0.947c-0.854,0-1.288-0.73-1.288-1.612
		c0-0.963,0.487-1.684,1.307-1.684c0.594,0,1.025,0.415,1.144,0.919c0.027,0.099,0.036,0.233,0.036,0.333V277.154L303.741,277.154z
		 M309.346,276.947c0.01-0.08,0.027-0.206,0.027-0.368c0-0.801-0.377-2.051-1.799-2.051c-1.271,0-2.043,1.034-2.043,2.348
		c0,1.314,0.8,2.195,2.142,2.195c0.693,0,1.17-0.144,1.449-0.27l-0.135-0.566c-0.297,0.126-0.64,0.226-1.206,0.226
		c-0.792,0-1.478-0.441-1.495-1.514H309.346L309.346,276.947z M306.295,276.382c0.063-0.55,0.415-1.289,1.216-1.289
		c0.892,0,1.107,0.784,1.099,1.289H306.295L306.295,276.382z M310.355,278.981h0.791v-2.619c0-0.135,0.018-0.271,0.054-0.369
		c0.135-0.441,0.541-0.81,1.063-0.81c0.747,0,1.009,0.585,1.009,1.286v2.512h0.791v-2.602c0-1.493-0.936-1.852-1.538-1.852
		c-0.721,0-1.226,0.404-1.441,0.816h-0.018l-0.045-0.718h-0.701c0.026,0.359,0.036,0.729,0.036,1.179V278.981L310.355,278.981z
		 M315.494,273.583v1.044h-0.675v0.602h0.675v2.377c0,0.513,0.081,0.899,0.306,1.134c0.189,0.216,0.485,0.332,0.854,0.332
		c0.306,0,0.549-0.044,0.702-0.107l-0.036-0.593c-0.1,0.027-0.252,0.054-0.459,0.054c-0.441,0-0.595-0.307-0.595-0.847v-2.35h1.135
		v-0.602h-1.135v-1.251L315.494,273.583L315.494,273.583z M319.084,278.981v-4.354h-0.791v4.354H319.084L319.084,278.981z
		 M318.689,272.908c-0.288,0-0.495,0.215-0.495,0.494c0,0.27,0.197,0.484,0.477,0.484c0.314,0,0.512-0.215,0.503-0.484
		C319.174,273.123,318.985,272.908,318.689,272.908L318.689,272.908z M321.262,278.981v-3.753h1.054v-0.602h-1.054v-0.234
		c0-0.666,0.171-1.262,0.847-1.262c0.225,0,0.387,0.045,0.504,0.101l0.107-0.612c-0.152-0.063-0.396-0.125-0.675-0.125
		c-0.369,0-0.765,0.116-1.061,0.404c-0.369,0.351-0.504,0.909-0.504,1.521v0.208h-0.612v0.602h0.612v3.753H321.262L321.262,278.981z
		 M322.451,274.627l1.611,4.015c0.035,0.099,0.054,0.161,0.054,0.207c0,0.045-0.027,0.107-0.063,0.188
		c-0.18,0.405-0.449,0.711-0.666,0.882c-0.233,0.198-0.495,0.324-0.692,0.387l0.197,0.666c0.198-0.035,0.586-0.171,0.973-0.513
		c0.54-0.468,0.927-1.232,1.493-2.727l1.188-3.105h-0.837l-0.863,2.557c-0.107,0.314-0.197,0.647-0.278,0.908h-0.019
		c-0.072-0.261-0.18-0.603-0.278-0.891l-0.954-2.574H322.451L322.451,274.627z"/>
	<path fill="#717073" d="M333.899,268.217h0.611l1.26-3.671l1.251,3.671h0.603l1.638-4.687h-0.72l-1.224,3.735l-1.261-3.754h-0.575
		l-1.25,3.754l-1.225-3.735h-0.737L333.899,268.217L333.899,268.217z M340.415,268.181h0.692v-2.663
		c0-0.873,0.594-1.458,1.395-1.458c0.82,0,1.288,0.54,1.288,1.403v2.718h0.692v-2.889c0-1.106-0.656-1.861-1.782-1.861
		c-0.801,0-1.287,0.404-1.593,0.907v-2.725h-0.692V268.181L340.415,268.181z M347.344,268.28c0.82,0,1.36-0.377,1.685-0.8v0.7h0.665
		v-2.843c0-0.594-0.162-1.044-0.477-1.358c-0.342-0.343-0.846-0.513-1.504-0.513c-0.675,0-1.179,0.152-1.691,0.387l0.207,0.566
		c0.432-0.198,0.863-0.343,1.412-0.343c0.874,0,1.388,0.433,1.388,1.27v0.162c-0.414-0.116-0.837-0.196-1.433-0.196
		c-1.179,0-1.987,0.52-1.987,1.501v0.018C345.608,267.786,346.48,268.28,347.344,268.28L347.344,268.28z M347.479,267.733
		c-0.631,0-1.171-0.343-1.171-0.929v-0.018c0-0.585,0.486-0.964,1.359-0.964c0.568,0,1.027,0.099,1.369,0.199v0.449
		C349.037,267.21,348.335,267.733,347.479,267.733L347.479,267.733z M352.681,268.262c0.333,0,0.595-0.07,0.838-0.196v-0.595
		c-0.243,0.118-0.441,0.163-0.676,0.163c-0.468,0-0.783-0.208-0.783-0.774v-2.719h1.477v-0.61h-1.477v-1.404h-0.691v1.404h-0.648
		v0.61h0.648v2.809C351.368,267.895,351.934,268.262,352.681,268.262L352.681,268.262z M357.461,268.181h0.692v-2.654
		c0-0.855,0.558-1.467,1.296-1.467c0.739,0,1.198,0.513,1.198,1.386v2.735h0.691v-2.682c0-0.918,0.576-1.439,1.278-1.439
		c0.757,0,1.207,0.504,1.207,1.403v2.718h0.691v-2.88c0-1.151-0.655-1.87-1.728-1.87c-0.81,0-1.305,0.413-1.638,0.926
		c-0.252-0.521-0.737-0.926-1.494-0.926c-0.783,0-1.197,0.423-1.503,0.881v-0.781h-0.692V268.181L357.461,268.181z M367.405,268.28
		c0.818,0,1.359-0.377,1.684-0.8v0.7h0.665v-2.843c0-0.594-0.162-1.044-0.477-1.358c-0.341-0.343-0.847-0.513-1.503-0.513
		c-0.676,0-1.18,0.152-1.692,0.387l0.207,0.566c0.432-0.198,0.864-0.343,1.413-0.343c0.873,0,1.387,0.433,1.387,1.27v0.162
		c-0.415-0.116-0.838-0.196-1.432-0.196c-1.179,0-1.988,0.52-1.988,1.501v0.018C365.669,267.786,366.541,268.28,367.405,268.28
		L367.405,268.28z M367.54,267.733c-0.63,0-1.17-0.343-1.17-0.929v-0.018c0-0.585,0.486-0.964,1.359-0.964
		c0.566,0,1.026,0.099,1.368,0.199v0.449C369.098,267.21,368.396,267.733,367.54,267.733L367.54,267.733z M372.742,268.262
		c0.333,0,0.594-0.07,0.837-0.196v-0.595c-0.243,0.118-0.441,0.163-0.675,0.163c-0.468,0-0.783-0.208-0.783-0.774v-2.719h1.476
		v-0.61h-1.476v-1.404h-0.692v1.404h-0.647v0.61h0.647v2.809C371.429,267.895,371.995,268.262,372.742,268.262L372.742,268.262z
		 M376.378,268.262c0.333,0,0.594-0.07,0.837-0.196v-0.595c-0.243,0.118-0.44,0.163-0.675,0.163c-0.468,0-0.783-0.208-0.783-0.774
		v-2.719h1.477v-0.61h-1.477v-1.404h-0.691v1.404h-0.648v0.61h0.648v2.809C375.065,267.895,375.631,268.262,376.378,268.262
		L376.378,268.262z M380.356,268.289c0.882,0,1.448-0.35,1.917-0.872l-0.433-0.387c-0.378,0.396-0.828,0.658-1.467,0.658
		c-0.828,0-1.539-0.568-1.639-1.577h3.689c0.01-0.08,0.01-0.134,0.01-0.225c0-1.358-0.79-2.456-2.169-2.456
		c-1.286,0-2.23,1.079-2.23,2.421v0.018C378.035,267.31,379.078,268.289,380.356,268.289L380.356,268.289z M378.735,265.601
		c0.09-0.91,0.703-1.587,1.513-1.587c0.927,0,1.414,0.739,1.486,1.587H378.735L378.735,265.601z M383.651,268.181h0.69v-1.854
		c0-1.404,0.828-2.133,1.846-2.133h0.054v-0.745c-0.882-0.036-1.557,0.521-1.899,1.294v-1.213h-0.69V268.181L383.651,268.181z
		 M388.834,268.271c0.928,0,1.655-0.513,1.655-1.395v-0.018c0-0.837-0.773-1.116-1.493-1.332c-0.621-0.189-1.198-0.36-1.198-0.801
		v-0.019c0-0.387,0.353-0.676,0.901-0.676c0.45,0,0.945,0.171,1.377,0.451l0.314-0.522c-0.477-0.314-1.106-0.512-1.674-0.512
		c-0.919,0-1.583,0.53-1.583,1.331v0.018c0,0.855,0.809,1.107,1.538,1.314c0.612,0.171,1.162,0.351,1.162,0.818v0.019
		c0,0.45-0.406,0.739-0.964,0.739c-0.549,0-1.108-0.218-1.611-0.596l-0.35,0.496C387.43,268.011,388.168,268.271,388.834,268.271
		L388.834,268.271z"/>
	<path fill="#0088A3" d="M303.911,268.181h0.764l-0.378-6.063h-0.998l-1.08,2.932c-0.27,0.767-0.485,1.433-0.639,2.045h-0.027
		c-0.152-0.631-0.359-1.297-0.611-2.044l-1.035-2.933h-0.999l-0.422,6.063h0.746l0.161-2.601c0.055-0.909,0.1-1.926,0.117-2.682
		h0.019c0.171,0.72,0.414,1.503,0.702,2.357l0.98,2.89h0.594l1.071-2.942c0.306-0.837,0.558-1.593,0.765-2.305h0.027
		c-0.009,0.757,0.045,1.773,0.09,2.62L303.911,268.181L303.911,268.181z M309.409,266.147c0.009-0.08,0.027-0.206,0.027-0.368
		c0-0.801-0.378-2.051-1.8-2.051c-1.27,0-2.043,1.033-2.043,2.348s0.801,2.195,2.143,2.195c0.692,0,1.17-0.144,1.448-0.27
		l-0.135-0.566c-0.297,0.126-0.639,0.226-1.206,0.226c-0.792,0-1.477-0.442-1.495-1.514H309.409L309.409,266.147z M306.358,265.582
		c0.063-0.55,0.414-1.289,1.216-1.289c0.891,0,1.106,0.784,1.098,1.289H306.358L306.358,265.582z M313.549,268.181
		c-0.054-0.297-0.071-0.665-0.071-1.044v-1.628c0-0.873-0.323-1.78-1.655-1.78c-0.55,0-1.072,0.151-1.432,0.386l0.181,0.521
		c0.305-0.197,0.728-0.324,1.134-0.324c0.891,0,0.99,0.648,0.99,1.009v0.091c-1.685-0.009-2.619,0.565-2.619,1.618
		c0,0.632,0.45,1.251,1.332,1.251c0.621,0,1.089-0.305,1.332-0.646h0.026l0.063,0.547H313.549L313.549,268.181z M312.713,266.714
		c0,0.082-0.018,0.172-0.045,0.253c-0.126,0.369-0.486,0.73-1.053,0.73c-0.406,0-0.748-0.244-0.748-0.757
		c0-0.847,0.981-1,1.846-0.982V266.714L312.713,266.714z M314.45,267.976c0.306,0.18,0.746,0.296,1.223,0.296
		c1.036,0,1.629-0.539,1.629-1.305c0-0.647-0.386-1.025-1.142-1.313c-0.568-0.216-0.829-0.378-0.829-0.738
		c0-0.324,0.261-0.595,0.73-0.595c0.404,0,0.72,0.144,0.891,0.252l0.197-0.575c-0.242-0.144-0.629-0.269-1.07-0.269
		c-0.938,0-1.503,0.573-1.503,1.276c0,0.522,0.369,0.954,1.151,1.233c0.586,0.216,0.811,0.423,0.811,0.801
		c0,0.36-0.271,0.649-0.847,0.649c-0.396,0-0.81-0.162-1.043-0.316L314.45,267.976L314.45,267.976z M321.964,263.827h-0.791v2.673
		c0,0.145-0.026,0.288-0.072,0.405c-0.144,0.351-0.513,0.72-1.044,0.72c-0.721,0-0.973-0.558-0.973-1.386v-2.412h-0.791v2.547
		c0,1.529,0.818,1.906,1.502,1.906c0.775,0,1.234-0.458,1.441-0.809h0.018l0.045,0.709H322c-0.027-0.342-0.036-0.736-0.036-1.187
		V263.827L321.964,263.827z M323.279,268.181h0.782v-2.321c0-0.135,0.018-0.261,0.035-0.369c0.108-0.594,0.504-1.017,1.063-1.017
		c0.107,0,0.188,0.009,0.27,0.026v-0.745c-0.071-0.018-0.135-0.026-0.225-0.026c-0.531,0-1.008,0.367-1.206,0.952h-0.036
		l-0.026-0.854h-0.692c0.027,0.404,0.036,0.845,0.036,1.358V268.181L323.279,268.181z M329.632,266.147
		c0.009-0.08,0.027-0.206,0.027-0.368c0-0.801-0.377-2.051-1.799-2.051c-1.271,0-2.043,1.033-2.043,2.348s0.8,2.195,2.142,2.195
		c0.693,0,1.17-0.144,1.448-0.27l-0.134-0.566c-0.298,0.126-0.64,0.226-1.206,0.226c-0.793,0-1.478-0.442-1.495-1.514H329.632
		L329.632,266.147z M326.581,265.582c0.063-0.55,0.414-1.289,1.216-1.289c0.892,0,1.107,0.784,1.099,1.289H326.581L326.581,265.582z
		"/>
	<path fill="#717073" d="M288.682,246.689c0.873,0,1.432-0.377,1.899-0.899l-0.441-0.414c-0.368,0.396-0.827,0.694-1.422,0.694
		c-0.972,0-1.71-0.802-1.71-1.811v-0.018c0-0.999,0.721-1.801,1.665-1.801c0.63,0,1.044,0.315,1.413,0.703l0.459-0.487
		c-0.432-0.458-0.98-0.826-1.863-0.826c-1.358,0-2.383,1.115-2.383,2.429v0.019C286.299,245.583,287.323,246.689,288.682,246.689
		L288.682,246.689z M293.714,246.689c1.404,0,2.438-1.115,2.438-2.43v-0.018c0-1.314-1.025-2.411-2.42-2.411
		c-1.404,0-2.43,1.115-2.43,2.429v0.019C291.303,245.592,292.319,246.689,293.714,246.689L293.714,246.689z M293.732,246.07
		c-0.981,0-1.721-0.812-1.721-1.811v-0.018c0-0.981,0.694-1.801,1.702-1.801c0.981,0,1.729,0.819,1.729,1.818v0.019
		C295.443,245.259,294.74,246.07,293.732,246.07L293.732,246.07z M297.468,246.581h0.691v-6.57h-0.691V246.581L297.468,246.581z
		 M299.834,246.581h0.692v-6.57h-0.692V246.581L299.834,246.581z M303.524,246.681c0.818,0,1.358-0.378,1.683-0.801v0.701h0.665
		v-2.843c0-0.594-0.162-1.044-0.476-1.359c-0.343-0.342-0.847-0.512-1.504-0.512c-0.676,0-1.18,0.152-1.691,0.386l0.206,0.567
		c0.432-0.198,0.864-0.343,1.414-0.343c0.873,0,1.386,0.433,1.386,1.27v0.162c-0.414-0.117-0.837-0.197-1.431-0.197
		c-1.181,0-1.989,0.521-1.989,1.501v0.019C301.787,246.187,302.659,246.681,303.524,246.681L303.524,246.681z M303.659,246.133
		c-0.631,0-1.171-0.343-1.171-0.928v-0.018c0-0.585,0.485-0.964,1.359-0.964c0.567,0,1.026,0.099,1.368,0.198v0.45
		C305.216,245.61,304.514,246.133,303.659,246.133L303.659,246.133z M309.824,246.681c1.125,0,2.222-0.899,2.222-2.421v-0.018
		c0-1.53-1.105-2.411-2.222-2.411c-0.856,0-1.405,0.477-1.783,1.034v-2.853h-0.692v6.568h0.692v-0.891
		C308.401,246.213,308.959,246.681,309.824,246.681L309.824,246.681z M309.698,246.062c-0.865,0-1.685-0.722-1.685-1.802v-0.018
		c0-1.062,0.819-1.792,1.685-1.792c0.882,0,1.638,0.703,1.638,1.801v0.019C311.336,245.395,310.598,246.062,309.698,246.062
		L309.698,246.062z M315.449,246.689c1.404,0,2.438-1.115,2.438-2.43v-0.018c0-1.314-1.024-2.411-2.42-2.411
		c-1.404,0-2.43,1.115-2.43,2.429v0.019C313.037,245.592,314.053,246.689,315.449,246.689L315.449,246.689z M315.467,246.07
		c-0.981,0-1.72-0.812-1.72-1.811v-0.018c0-0.981,0.693-1.801,1.702-1.801c0.98,0,1.728,0.819,1.728,1.818v0.019
		C317.177,245.259,316.475,246.07,315.467,246.07L315.467,246.07z M319.139,246.581h0.692v-1.854c0-1.404,0.828-2.134,1.845-2.134
		h0.055v-0.744c-0.883-0.036-1.558,0.521-1.899,1.294v-1.213h-0.692V246.581L319.139,246.581z M323.944,246.681
		c0.819,0,1.359-0.378,1.684-0.801v0.701h0.665v-2.843c0-0.594-0.162-1.044-0.476-1.359c-0.343-0.342-0.847-0.512-1.503-0.512
		c-0.677,0-1.181,0.152-1.693,0.386l0.207,0.567c0.432-0.198,0.864-0.343,1.414-0.343c0.873,0,1.386,0.433,1.386,1.27v0.162
		c-0.414-0.117-0.837-0.197-1.432-0.197c-1.18,0-1.988,0.521-1.988,1.501v0.019C322.208,246.187,323.08,246.681,323.944,246.681
		L323.944,246.681z M324.079,246.133c-0.63,0-1.17-0.343-1.17-0.928v-0.018c0-0.585,0.486-0.964,1.36-0.964
		c0.566,0,1.025,0.099,1.367,0.198v0.45C325.637,245.61,324.935,246.133,324.079,246.133L324.079,246.133z M329.281,246.662
		c0.333,0,0.594-0.071,0.837-0.197v-0.594c-0.243,0.118-0.441,0.163-0.675,0.163c-0.469,0-0.783-0.208-0.783-0.775v-2.719h1.476
		v-0.609h-1.476v-1.404h-0.692v1.404h-0.647v0.609h0.647v2.81C327.968,246.294,328.534,246.662,329.281,246.662L329.281,246.662z
		 M331.379,240.911h0.791v-0.763h-0.791V240.911L331.379,240.911z M331.424,246.581h0.692v-4.65h-0.692V246.581L331.424,246.581z
		 M335.851,246.689c1.405,0,2.439-1.115,2.439-2.43v-0.018c0-1.314-1.025-2.411-2.421-2.411c-1.404,0-2.429,1.115-2.429,2.429v0.019
		C333.44,245.592,334.456,246.689,335.851,246.689L335.851,246.689z M335.869,246.07c-0.981,0-1.719-0.812-1.719-1.811v-0.018
		c0-0.981,0.692-1.801,1.7-1.801c0.982,0,1.729,0.819,1.729,1.818v0.019C337.58,245.259,336.878,246.07,335.869,246.07
		L335.869,246.07z M339.542,246.581h0.692v-2.664c0-0.873,0.594-1.458,1.395-1.458c0.82,0,1.288,0.54,1.288,1.404v2.718h0.692
		v-2.889c0-1.107-0.656-1.861-1.782-1.861c-0.801,0-1.287,0.404-1.593,0.907v-0.808h-0.692V246.581L339.542,246.581z
		 M349.342,246.662c0.333,0,0.595-0.071,0.837-0.197v-0.594c-0.242,0.118-0.44,0.163-0.675,0.163c-0.468,0-0.783-0.208-0.783-0.775
		v-2.719h1.477v-0.609h-1.477v-1.404h-0.691v1.404h-0.648v0.609h0.648v2.81C348.029,246.294,348.595,246.662,349.342,246.662
		L349.342,246.662z M353.41,246.689c1.405,0,2.438-1.115,2.438-2.43v-0.018c0-1.314-1.024-2.411-2.421-2.411
		c-1.403,0-2.429,1.115-2.429,2.429v0.019C350.999,245.592,352.015,246.689,353.41,246.689L353.41,246.689z M353.428,246.07
		c-0.98,0-1.719-0.812-1.719-1.811v-0.018c0-0.981,0.693-1.801,1.701-1.801c0.98,0,1.729,0.819,1.729,1.818v0.019
		C355.139,245.259,354.437,246.07,353.428,246.07L353.428,246.07z M357.065,242.873h0.827v-0.942h-0.827V242.873L357.065,242.873z
		 M357.065,246.581h0.827v-0.943h-0.827V246.581L357.065,246.581z"/>
	<path fill="#717073" d="M288.682,235.89c0.873,0,1.432-0.378,1.899-0.899l-0.441-0.414c-0.368,0.396-0.827,0.694-1.422,0.694
		c-0.972,0-1.71-0.803-1.71-1.811v-0.018c0-0.999,0.721-1.801,1.665-1.801c0.63,0,1.044,0.315,1.413,0.702l0.459-0.485
		c-0.432-0.459-0.98-0.827-1.863-0.827c-1.358,0-2.383,1.115-2.383,2.429v0.019C286.299,234.783,287.323,235.89,288.682,235.89
		L288.682,235.89z M293.111,235.88c0.818,0,1.358-0.377,1.684-0.8v0.701h0.664v-2.843c0-0.595-0.161-1.044-0.476-1.359
		c-0.343-0.342-0.847-0.512-1.503-0.512c-0.676,0-1.181,0.151-1.692,0.386l0.207,0.567c0.432-0.198,0.864-0.344,1.413-0.344
		c0.873,0,1.387,0.434,1.387,1.271v0.162c-0.415-0.117-0.838-0.197-1.432-0.197c-1.181,0-1.988,0.521-1.988,1.501v0.018
		C291.375,235.386,292.246,235.88,293.111,235.88L293.111,235.88z M293.246,235.333c-0.63,0-1.171-0.343-1.171-0.928v-0.019
		c0-0.585,0.487-0.964,1.359-0.964c0.567,0,1.026,0.1,1.369,0.199v0.45C294.804,234.811,294.101,235.333,293.246,235.333
		L293.246,235.333z M296.937,235.781h0.691v-1.854c0-1.403,0.828-2.133,1.845-2.133h0.055v-0.745
		c-0.882-0.036-1.558,0.521-1.899,1.294v-1.213h-0.691V235.781L296.937,235.781z M302.417,235.89c0.882,0,1.449-0.351,1.917-0.872
		l-0.432-0.388c-0.378,0.396-0.828,0.658-1.468,0.658c-0.827,0-1.539-0.568-1.639-1.577h3.69c0.009-0.08,0.009-0.134,0.009-0.224
		c0-1.359-0.79-2.456-2.168-2.456c-1.287,0-2.231,1.079-2.231,2.42v0.018C300.096,234.909,301.139,235.89,302.417,235.89
		L302.417,235.89z M300.796,233.2c0.09-0.91,0.703-1.586,1.513-1.586c0.928,0,1.414,0.739,1.486,1.586H300.796L300.796,233.2z
		 M307.745,235.89c0.882,0,1.449-0.351,1.917-0.872l-0.432-0.388c-0.378,0.396-0.828,0.658-1.468,0.658
		c-0.828,0-1.54-0.568-1.639-1.577h3.69c0.009-0.08,0.009-0.134,0.009-0.224c0-1.359-0.79-2.456-2.168-2.456
		c-1.287,0-2.231,1.079-2.231,2.42v0.018C305.424,234.909,306.467,235.89,307.745,235.89L307.745,235.89z M306.124,233.2
		c0.09-0.91,0.703-1.586,1.513-1.586c0.928,0,1.414,0.739,1.486,1.586H306.124L306.124,233.2z M311.04,235.781h0.691v-1.854
		c0-1.403,0.827-2.133,1.845-2.133h0.054v-0.745c-0.882-0.036-1.557,0.521-1.898,1.294v-1.213h-0.691V235.781L311.04,235.781z
		 M319.859,235.88c1.125,0,2.222-0.898,2.222-2.42v-0.018c0-1.53-1.106-2.411-2.222-2.411c-0.855,0-1.405,0.476-1.783,1.034v-2.853
		h-0.692v6.568h0.692v-0.891C318.437,235.413,318.995,235.88,319.859,235.88L319.859,235.88z M319.733,235.261
		c-0.864,0-1.685-0.721-1.685-1.801v-0.018c0-1.063,0.82-1.792,1.685-1.792c0.882,0,1.638,0.703,1.638,1.801v0.018
		C321.371,234.594,320.633,235.261,319.733,235.261L319.733,235.261z M325.124,235.009l-1.692-3.879h-0.765l2.115,4.635
		c-0.279,0.657-0.54,0.873-0.954,0.873c-0.297,0-0.504-0.054-0.729-0.171l-0.233,0.549c0.314,0.152,0.603,0.232,0.99,0.232
		c0.701,0,1.151-0.35,1.548-1.312l1.952-4.807h-0.738L325.124,235.009L325.124,235.009z M331.217,235.781h0.692v-6.57h-0.692
		V235.781L331.217,235.781z M335.554,235.89c0.884,0,1.45-0.351,1.917-0.872l-0.431-0.388c-0.378,0.396-0.828,0.658-1.468,0.658
		c-0.828,0-1.539-0.568-1.639-1.577h3.69c0.009-0.08,0.009-0.134,0.009-0.224c0-1.359-0.791-2.456-2.169-2.456
		c-1.287,0-2.23,1.079-2.23,2.42v0.018C333.233,234.909,334.276,235.89,335.554,235.89L335.554,235.89z M333.934,233.2
		c0.091-0.91,0.702-1.586,1.513-1.586c0.928,0,1.414,0.739,1.485,1.586H333.934L333.934,233.2z M340.18,235.817h0.612l2.025-4.688
		h-0.747l-1.575,3.861l-1.565-3.861h-0.765L340.18,235.817L340.18,235.817z M345.67,235.89c0.883,0,1.45-0.351,1.917-0.872
		l-0.431-0.388c-0.378,0.396-0.828,0.658-1.468,0.658c-0.828,0-1.539-0.568-1.639-1.577h3.69c0.009-0.08,0.009-0.134,0.009-0.224
		c0-1.359-0.791-2.456-2.169-2.456c-1.287,0-2.231,1.079-2.231,2.42v0.018C343.349,234.909,344.392,235.89,345.67,235.89
		L345.67,235.89z M344.05,233.2c0.09-0.91,0.702-1.586,1.513-1.586c0.928,0,1.413,0.739,1.485,1.586H344.05L344.05,233.2z
		 M348.965,235.781h0.692v-1.854c0-1.403,0.828-2.133,1.845-2.133h0.054v-0.745c-0.882-0.036-1.557,0.521-1.898,1.294v-1.213h-0.692
		V235.781L348.965,235.781z M353.771,235.88c0.819,0,1.359-0.377,1.684-0.8v0.701h0.665v-2.843c0-0.595-0.162-1.044-0.477-1.359
		c-0.342-0.342-0.846-0.512-1.504-0.512c-0.675,0-1.179,0.151-1.691,0.386l0.207,0.567c0.432-0.198,0.864-0.344,1.413-0.344
		c0.874,0,1.387,0.434,1.387,1.271v0.162c-0.414-0.117-0.837-0.197-1.432-0.197c-1.18,0-1.988,0.521-1.988,1.501v0.018
		C352.034,235.386,352.906,235.88,353.771,235.88L353.771,235.88z M353.905,235.333c-0.63,0-1.17-0.343-1.17-0.928v-0.019
		c0-0.585,0.485-0.964,1.358-0.964c0.568,0,1.027,0.1,1.369,0.199v0.45C355.463,234.811,354.761,235.333,353.905,235.333
		L353.905,235.333z M359.656,237.239c0.739,0,1.359-0.206,1.773-0.619c0.377-0.379,0.594-0.928,0.594-1.648v-3.842h-0.692v0.837
		c-0.378-0.505-0.946-0.936-1.819-0.936c-1.106,0-2.186,0.836-2.186,2.195v0.018c0,1.341,1.07,2.177,2.186,2.177
		c0.855,0,1.423-0.439,1.828-0.979v0.549c0,1.089-0.666,1.657-1.692,1.657c-0.666,0-1.261-0.208-1.791-0.596l-0.315,0.54
		C358.162,237.024,358.882,237.239,359.656,237.239L359.656,237.239z M359.647,234.812c-0.864,0-1.611-0.649-1.611-1.585v-0.019
		c0-0.954,0.729-1.566,1.611-1.566s1.711,0.621,1.711,1.575v0.019C361.358,234.171,360.53,234.812,359.647,234.812L359.647,234.812z
		 M363.59,230.111h0.791v-0.763h-0.791V230.111L363.59,230.111z M363.635,235.781h0.692v-4.651h-0.692V235.781L363.635,235.781z
		 M365.939,235.781h0.69v-2.664c0-0.873,0.595-1.458,1.396-1.458c0.818,0,1.288,0.54,1.288,1.404v2.718h0.69v-2.889
		c0-1.107-0.654-1.861-1.781-1.861c-0.801,0-1.286,0.404-1.594,0.907v-0.809h-0.69V235.781L365.939,235.781z M373.543,237.239
		c0.738,0,1.359-0.206,1.773-0.619c0.378-0.379,0.593-0.928,0.593-1.648v-3.842h-0.691v0.837c-0.379-0.505-0.945-0.936-1.818-0.936
		c-1.107,0-2.187,0.836-2.187,2.195v0.018c0,1.341,1.07,2.177,2.187,2.177c0.854,0,1.422-0.439,1.828-0.979v0.549
		c0,1.089-0.668,1.657-1.693,1.657c-0.666,0-1.26-0.208-1.791-0.596l-0.315,0.54C372.048,237.024,372.77,237.239,373.543,237.239
		L373.543,237.239z M373.534,234.812c-0.864,0-1.612-0.649-1.612-1.585v-0.019c0-0.954,0.73-1.566,1.612-1.566
		s1.711,0.621,1.711,1.575v0.019C375.245,234.171,374.416,234.812,373.534,234.812L373.534,234.812z M382.111,235.88
		c0.854,0,1.403-0.476,1.782-1.034v0.936h0.691v-6.568h-0.691v2.807c-0.36-0.521-0.919-0.988-1.782-0.988
		c-1.117,0-2.224,0.897-2.224,2.419v0.018C379.888,234.999,380.994,235.88,382.111,235.88L382.111,235.88z M382.237,235.261
		c-0.874,0-1.64-0.702-1.64-1.801v-0.018c0-1.125,0.738-1.792,1.64-1.792c0.863,0,1.683,0.721,1.683,1.792v0.018
		C383.92,234.531,383.101,235.261,382.237,235.261L382.237,235.261z M387.521,235.88c0.818,0,1.358-0.377,1.683-0.8v0.701h0.665
		v-2.843c0-0.595-0.162-1.044-0.476-1.359c-0.343-0.342-0.847-0.512-1.504-0.512c-0.676,0-1.18,0.151-1.691,0.386l0.206,0.567
		c0.432-0.198,0.863-0.344,1.414-0.344c0.873,0,1.386,0.434,1.386,1.271v0.162c-0.414-0.117-0.837-0.197-1.431-0.197
		c-1.181,0-1.989,0.521-1.989,1.501v0.018C385.783,235.386,386.655,235.88,387.521,235.88L387.521,235.88z M387.655,235.333
		c-0.631,0-1.171-0.343-1.171-0.928v-0.019c0-0.585,0.485-0.964,1.359-0.964c0.567,0,1.026,0.1,1.368,0.199v0.45
		C389.212,234.811,388.51,235.333,387.655,235.333L387.655,235.333z M392.856,235.862c0.333,0,0.594-0.071,0.837-0.197v-0.594
		c-0.243,0.118-0.441,0.163-0.676,0.163c-0.468,0-0.782-0.208-0.782-0.775v-2.719h1.476v-0.61h-1.476v-1.403h-0.692v1.403h-0.647
		v0.61h0.647v2.809C391.543,235.494,392.109,235.862,392.856,235.862L392.856,235.862z M396.321,235.88
		c0.819,0,1.359-0.377,1.684-0.8v0.701h0.665v-2.843c0-0.595-0.162-1.044-0.476-1.359c-0.343-0.342-0.847-0.512-1.503-0.512
		c-0.677,0-1.181,0.151-1.692,0.386l0.206,0.567c0.432-0.198,0.864-0.344,1.414-0.344c0.873,0,1.386,0.434,1.386,1.271v0.162
		c-0.414-0.117-0.837-0.197-1.431-0.197c-1.18,0-1.989,0.521-1.989,1.501v0.018C394.585,235.386,395.457,235.88,396.321,235.88
		L396.321,235.88z M396.457,235.333c-0.631,0-1.171-0.343-1.171-0.928v-0.019c0-0.585,0.486-0.964,1.36-0.964
		c0.566,0,1.025,0.1,1.367,0.199v0.45C398.014,234.811,397.313,235.333,396.457,235.333L396.457,235.333z M399.896,236.879
		c0.683-0.152,0.997-0.504,0.997-1.231v-0.81h-0.826v0.943h0.323c0.036,0.387-0.152,0.621-0.603,0.783L399.896,236.879
		L399.896,236.879z M407.148,235.89c0.872,0,1.431-0.378,1.898-0.899l-0.44-0.414c-0.369,0.396-0.828,0.694-1.422,0.694
		c-0.973,0-1.711-0.803-1.711-1.811v-0.018c0-0.999,0.721-1.801,1.665-1.801c0.63,0,1.044,0.315,1.413,0.702l0.459-0.485
		c-0.432-0.459-0.98-0.827-1.862-0.827c-1.359,0-2.385,1.115-2.385,2.429v0.019C404.764,234.783,405.789,235.89,407.148,235.89
		L407.148,235.89z M412.179,235.89c1.405,0,2.439-1.115,2.439-2.43v-0.018c0-1.314-1.025-2.411-2.421-2.411
		c-1.404,0-2.429,1.115-2.429,2.429v0.019C409.769,234.792,410.784,235.89,412.179,235.89L412.179,235.89z M412.197,235.271
		c-0.981,0-1.72-0.812-1.72-1.811v-0.018c0-0.981,0.693-1.801,1.701-1.801c0.982,0,1.729,0.819,1.729,1.818v0.019
		C413.908,234.459,413.206,235.271,412.197,235.271L412.197,235.271z M415.87,235.781h0.691v-2.655c0-0.854,0.559-1.467,1.297-1.467
		s1.197,0.513,1.197,1.386v2.736h0.692v-2.683c0-0.918,0.576-1.439,1.278-1.439c0.757,0,1.207,0.504,1.207,1.404v2.718h0.691v-2.88
		c0-1.152-0.656-1.87-1.728-1.87c-0.811,0-1.306,0.413-1.638,0.925c-0.252-0.521-0.737-0.925-1.494-0.925
		c-0.783,0-1.197,0.422-1.504,0.88v-0.781h-0.691V235.781L415.87,235.781z M424.429,235.781h0.692v-2.655
		c0-0.854,0.558-1.467,1.296-1.467c0.739,0,1.198,0.513,1.198,1.386v2.736h0.691v-2.683c0-0.918,0.576-1.439,1.278-1.439
		c0.757,0,1.207,0.504,1.207,1.404v2.718h0.692v-2.88c0-1.152-0.656-1.87-1.729-1.87c-0.81,0-1.305,0.413-1.638,0.925
		c-0.252-0.521-0.737-0.925-1.494-0.925c-0.783,0-1.197,0.422-1.503,0.88v-0.781h-0.692V235.781L424.429,235.781z M434.697,235.88
		c0.801,0,1.278-0.403,1.594-0.906v0.808h0.683v-4.651h-0.683v2.663c0,0.874-0.604,1.459-1.396,1.459
		c-0.819,0-1.287-0.54-1.287-1.403v-2.719h-0.692v2.89C432.916,235.126,433.572,235.88,434.697,235.88L434.697,235.88z
		 M438.532,235.781h0.691v-2.664c0-0.873,0.595-1.458,1.396-1.458c0.82,0,1.288,0.54,1.288,1.404v2.718h0.691v-2.889
		c0-1.107-0.655-1.861-1.781-1.861c-0.802,0-1.287,0.404-1.594,0.907v-0.809h-0.691V235.781L438.532,235.781z M444.094,230.111
		h0.791v-0.763h-0.791V230.111L444.094,230.111z M444.139,235.781h0.692v-4.651h-0.692V235.781L444.139,235.781z M447.998,235.862
		c0.333,0,0.594-0.071,0.837-0.197v-0.594c-0.243,0.118-0.441,0.163-0.675,0.163c-0.468,0-0.783-0.208-0.783-0.775v-2.719h1.476
		v-0.61h-1.476v-1.403h-0.69v1.403h-0.648v0.61h0.648v2.809C446.687,235.494,447.252,235.862,447.998,235.862L447.998,235.862z
		 M452.067,235.009l-1.692-3.879h-0.765l2.115,4.635c-0.279,0.657-0.541,0.873-0.955,0.873c-0.297,0-0.504-0.054-0.729-0.171
		l-0.234,0.549c0.315,0.152,0.604,0.232,0.99,0.232c0.702,0,1.152-0.35,1.548-1.312l1.952-4.807h-0.736L452.067,235.009
		L452.067,235.009z M460.131,235.89c0.882,0,1.449-0.351,1.916-0.872l-0.431-0.388c-0.378,0.396-0.828,0.658-1.467,0.658
		c-0.829,0-1.54-0.568-1.64-1.577h3.69c0.009-0.08,0.009-0.134,0.009-0.224c0-1.359-0.791-2.456-2.168-2.456
		c-1.288,0-2.231,1.079-2.231,2.42v0.018C457.81,234.909,458.853,235.89,460.131,235.89L460.131,235.89z M458.51,233.2
		c0.091-0.91,0.702-1.586,1.514-1.586c0.927,0,1.413,0.739,1.484,1.586H458.51L458.51,233.2z M463.596,231.13h-0.792l1.746,2.285
		l-1.817,2.366h0.773l1.449-1.916l1.438,1.916h0.802l-1.835-2.375l1.763-2.276h-0.774l-1.385,1.817L463.596,231.13L463.596,231.13z
		 M468.321,237.221h0.691v-2.329c0.36,0.521,0.918,0.988,1.783,0.988c1.125,0,2.223-0.898,2.223-2.42v-0.018
		c0-1.53-1.106-2.411-2.223-2.411c-0.855,0-1.405,0.476-1.783,1.034v-0.936h-0.691V237.221L468.321,237.221z M470.67,235.261
		c-0.865,0-1.684-0.72-1.684-1.8v-0.018c0-1.063,0.818-1.793,1.684-1.793c0.882,0,1.638,0.703,1.638,1.801v0.018
		C472.308,234.595,471.57,235.261,470.67,235.261L470.67,235.261z M476.33,235.89c0.883,0,1.45-0.351,1.917-0.872l-0.431-0.388
		c-0.378,0.396-0.828,0.658-1.469,0.658c-0.827,0-1.538-0.568-1.638-1.577h3.69c0.009-0.08,0.009-0.134,0.009-0.224
		c0-1.359-0.791-2.456-2.169-2.456c-1.287,0-2.231,1.079-2.231,2.42v0.018C474.009,234.909,475.052,235.89,476.33,235.89
		L476.33,235.89z M474.71,233.2c0.09-0.91,0.702-1.586,1.512-1.586c0.929,0,1.414,0.739,1.486,1.586H474.71L474.71,233.2z
		 M479.625,235.781h0.692v-1.854c0-1.403,0.828-2.133,1.845-2.133h0.054v-0.745c-0.882-0.036-1.557,0.521-1.898,1.294v-1.213h-0.692
		V235.781L479.625,235.781z M484.826,235.862c0.333,0,0.594-0.071,0.837-0.197v-0.594c-0.243,0.118-0.441,0.163-0.675,0.163
		c-0.468,0-0.783-0.208-0.783-0.775v-2.719h1.476v-0.61h-1.476v-1.403h-0.692v1.403h-0.647v0.61h0.647v2.809
		C483.513,235.494,484.079,235.862,484.826,235.862L484.826,235.862z M486.924,230.111h0.791v-0.763h-0.791V230.111L486.924,230.111
		z M486.969,235.781h0.692v-4.651h-0.692V235.781L486.969,235.781z M490.812,235.871c0.928,0,1.655-0.512,1.655-1.394v-0.019
		c0-0.837-0.772-1.116-1.494-1.332c-0.62-0.188-1.196-0.359-1.196-0.801v-0.018c0-0.388,0.351-0.677,0.899-0.677
		c0.45,0,0.946,0.171,1.377,0.451l0.315-0.521c-0.477-0.315-1.107-0.513-1.674-0.513c-0.918,0-1.583,0.53-1.583,1.331v0.019
		c0,0.854,0.809,1.106,1.538,1.313c0.611,0.171,1.162,0.352,1.162,0.819v0.018c0,0.45-0.405,0.739-0.965,0.739
		c-0.549,0-1.106-0.217-1.609-0.595l-0.352,0.496C489.407,235.611,490.146,235.871,490.812,235.871L490.812,235.871z
		 M495.788,235.89c0.882,0,1.45-0.351,1.917-0.872l-0.432-0.388c-0.378,0.396-0.828,0.658-1.468,0.658
		c-0.828,0-1.539-0.568-1.638-1.577h3.69c0.009-0.08,0.009-0.134,0.009-0.224c0-1.359-0.791-2.456-2.169-2.456
		c-1.287,0-2.231,1.079-2.231,2.42v0.018C493.467,234.909,494.51,235.89,495.788,235.89L495.788,235.89z M494.168,233.2
		c0.09-0.91,0.702-1.586,1.512-1.586c0.928,0,1.414,0.739,1.486,1.586H494.168L494.168,233.2z M503.168,235.88
		c0.819,0,1.359-0.377,1.683-0.8v0.701h0.665v-2.843c0-0.595-0.16-1.044-0.476-1.359c-0.342-0.342-0.846-0.512-1.503-0.512
		c-0.675,0-1.18,0.151-1.692,0.386l0.206,0.567c0.434-0.198,0.865-0.344,1.414-0.344c0.873,0,1.386,0.434,1.386,1.271v0.162
		c-0.414-0.117-0.837-0.197-1.431-0.197c-1.18,0-1.988,0.521-1.988,1.501v0.018C501.432,235.386,502.303,235.88,503.168,235.88
		L503.168,235.88z M503.303,235.333c-0.63,0-1.171-0.343-1.171-0.928v-0.019c0-0.585,0.487-0.964,1.36-0.964
		c0.567,0,1.026,0.1,1.368,0.199v0.45C504.86,234.811,504.158,235.333,503.303,235.333L503.303,235.333z M506.993,235.781h0.691
		v-2.664c0-0.873,0.596-1.458,1.396-1.458c0.819,0,1.287,0.54,1.287,1.404v2.718h0.691v-2.889c0-1.107-0.655-1.861-1.78-1.861
		c-0.802,0-1.288,0.404-1.595,0.907v-0.809h-0.691V235.781L506.993,235.781z M514.49,235.88c0.854,0,1.403-0.476,1.782-1.034v0.936
		h0.691v-6.568h-0.691v2.807c-0.36-0.521-0.918-0.988-1.782-0.988c-1.117,0-2.224,0.897-2.224,2.419v0.018
		C512.267,234.999,513.373,235.88,514.49,235.88L514.49,235.88z M514.616,235.261c-0.873,0-1.639-0.702-1.639-1.801v-0.018
		c0-1.125,0.738-1.792,1.639-1.792c0.864,0,1.683,0.721,1.683,1.792v0.018C516.299,234.531,515.48,235.261,514.616,235.261
		L514.616,235.261z"/>
	<path fill="#717073" d="M287.972,225.08c0.819,0,1.359-0.377,1.685-0.8v0.701h0.664v-2.844c0-0.594-0.161-1.044-0.477-1.358
		c-0.342-0.342-0.846-0.512-1.503-0.512c-0.675,0-1.179,0.151-1.691,0.386l0.207,0.566c0.432-0.197,0.863-0.343,1.413-0.343
		c0.872,0,1.387,0.434,1.387,1.271v0.162c-0.415-0.117-0.838-0.197-1.433-0.197c-1.18,0-1.987,0.52-1.987,1.501v0.018
		C286.236,224.586,287.107,225.08,287.972,225.08L287.972,225.08z M288.107,224.533c-0.63,0-1.171-0.343-1.171-0.928v-0.019
		c0-0.585,0.486-0.964,1.359-0.964c0.567,0,1.026,0.099,1.369,0.199v0.45C289.665,224.01,288.962,224.533,288.107,224.533
		L288.107,224.533z M293.893,225.089c0.873,0,1.432-0.377,1.899-0.898l-0.441-0.414c-0.368,0.396-0.827,0.693-1.422,0.693
		c-0.972,0-1.71-0.802-1.71-1.81v-0.018c0-0.999,0.721-1.802,1.665-1.802c0.63,0,1.044,0.316,1.413,0.703l0.459-0.485
		c-0.432-0.459-0.98-0.827-1.863-0.827c-1.358,0-2.383,1.114-2.383,2.429v0.018C291.51,223.983,292.534,225.089,293.893,225.089
		L293.893,225.089z M296.937,224.981h0.691v-2.664c0-0.873,0.595-1.458,1.396-1.458c0.818,0,1.287,0.54,1.287,1.403v2.719h0.691
		v-2.89c0-1.106-0.656-1.86-1.781-1.86c-0.801,0-1.288,0.403-1.594,0.906v-2.725h-0.691V224.981L296.937,224.981z M302.498,219.312
		h0.791v-0.764h-0.791V219.312L302.498,219.312z M302.543,224.981h0.692v-4.651h-0.692V224.981L302.543,224.981z M306.881,225.089
		c0.882,0,1.449-0.35,1.916-0.872l-0.431-0.387c-0.378,0.396-0.828,0.658-1.467,0.658c-0.828,0-1.54-0.568-1.64-1.577h3.69
		c0.009-0.08,0.009-0.134,0.009-0.224c0-1.359-0.791-2.456-2.168-2.456c-1.288,0-2.232,1.079-2.232,2.42v0.018
		C304.559,224.109,305.603,225.089,306.881,225.089L306.881,225.089z M305.26,222.4c0.09-0.91,0.702-1.586,1.514-1.586
		c0.927,0,1.413,0.738,1.484,1.586H305.26L305.26,222.4z M311.507,225.018h0.612l2.023-4.688h-0.746l-1.574,3.861l-1.566-3.861
		h-0.765L311.507,225.018L311.507,225.018z M316.997,225.089c0.882,0,1.449-0.35,1.916-0.872l-0.431-0.387
		c-0.378,0.396-0.828,0.658-1.468,0.658c-0.828,0-1.54-0.568-1.639-1.577h3.69c0.009-0.08,0.009-0.134,0.009-0.224
		c0-1.359-0.791-2.456-2.168-2.456c-1.288,0-2.232,1.079-2.232,2.42v0.018C314.675,224.109,315.718,225.089,316.997,225.089
		L316.997,225.089z M315.376,222.4c0.09-0.91,0.702-1.586,1.513-1.586c0.928,0,1.413,0.738,1.485,1.586H315.376L315.376,222.4z
		 M320.291,224.981h0.692v-2.655c0-0.855,0.558-1.467,1.297-1.467c0.737,0,1.197,0.513,1.197,1.386v2.736h0.691v-2.683
		c0-0.918,0.576-1.439,1.279-1.439c0.756,0,1.206,0.504,1.206,1.403v2.719h0.691v-2.88c0-1.152-0.655-1.87-1.727-1.87
		c-0.812,0-1.306,0.413-1.639,0.925c-0.251-0.521-0.737-0.925-1.493-0.925c-0.784,0-1.198,0.422-1.504,0.88v-0.781h-0.692V224.981
		L320.291,224.981z M330.884,225.089c0.882,0,1.449-0.35,1.916-0.872l-0.431-0.387c-0.378,0.396-0.828,0.658-1.467,0.658
		c-0.829,0-1.54-0.568-1.64-1.577h3.69c0.009-0.08,0.009-0.134,0.009-0.224c0-1.359-0.791-2.456-2.168-2.456
		c-1.288,0-2.231,1.079-2.231,2.42v0.018C328.563,224.109,329.605,225.089,330.884,225.089L330.884,225.089z M329.263,222.4
		c0.091-0.91,0.702-1.586,1.514-1.586c0.927,0,1.413,0.738,1.484,1.586H329.263L329.263,222.4z M334.178,224.981h0.692v-2.664
		c0-0.873,0.594-1.458,1.396-1.458c0.819,0,1.287,0.54,1.287,1.403v2.719h0.692v-2.89c0-1.106-0.656-1.86-1.781-1.86
		c-0.802,0-1.288,0.403-1.594,0.906v-0.808h-0.692V224.981L334.178,224.981z M341.278,225.063c0.333,0,0.594-0.071,0.837-0.197
		v-0.593c-0.243,0.117-0.441,0.162-0.675,0.162c-0.469,0-0.783-0.208-0.783-0.775v-2.719h1.476v-0.61h-1.476v-1.404h-0.692v1.404
		h-0.647v0.61h0.647v2.809C339.965,224.694,340.531,225.063,341.278,225.063L341.278,225.063z M347.614,225.063
		c0.333,0,0.594-0.071,0.837-0.197v-0.593c-0.243,0.117-0.441,0.162-0.675,0.162c-0.469,0-0.783-0.208-0.783-0.775v-2.719h1.476
		v-0.61h-1.476v-1.404h-0.692v1.404h-0.647v0.61h0.647v2.809C346.301,224.694,346.867,225.063,347.614,225.063L347.614,225.063z
		 M349.694,224.981h0.691v-2.664c0-0.873,0.595-1.458,1.396-1.458c0.82,0,1.288,0.54,1.288,1.403v2.719h0.691v-2.89
		c0-1.106-0.655-1.86-1.781-1.86c-0.802,0-1.287,0.403-1.594,0.906v-2.725h-0.691V224.981L349.694,224.981z M355.238,224.981h0.691
		v-1.854c0-1.403,0.828-2.133,1.846-2.133h0.054v-0.745c-0.882-0.036-1.557,0.521-1.899,1.294v-1.213h-0.691V224.981
		L355.238,224.981z M360.808,225.089c1.405,0,2.439-1.114,2.439-2.429v-0.018c0-1.314-1.025-2.411-2.421-2.411
		c-1.404,0-2.429,1.114-2.429,2.429v0.018C358.397,223.992,359.413,225.089,360.808,225.089L360.808,225.089z M360.826,224.47
		c-0.981,0-1.719-0.811-1.719-1.81v-0.018c0-0.981,0.692-1.802,1.7-1.802c0.982,0,1.729,0.82,1.729,1.819v0.018
		C362.537,223.659,361.835,224.47,360.826,224.47L360.826,224.47z M366.208,225.08c0.802,0,1.279-0.404,1.594-0.907v0.809h0.684
		v-4.651h-0.684v2.663c0,0.874-0.603,1.459-1.396,1.459c-0.819,0-1.287-0.54-1.287-1.404v-2.718h-0.692v2.889
		C364.427,224.326,365.083,225.08,366.208,225.08L366.208,225.08z M372.104,226.439c0.737,0,1.359-0.206,1.773-0.619
		c0.377-0.379,0.593-0.928,0.593-1.648v-3.842h-0.691v0.837c-0.378-0.505-0.946-0.936-1.819-0.936c-1.107,0-2.186,0.836-2.186,2.194
		v0.019c0,1.341,1.069,2.177,2.186,2.177c0.855,0,1.423-0.44,1.828-0.979v0.549c0,1.089-0.666,1.656-1.693,1.656
		c-0.666,0-1.26-0.207-1.791-0.595l-0.314,0.54C370.609,226.225,371.329,226.439,372.104,226.439L372.104,226.439z M372.094,224.011
		c-0.863,0-1.61-0.648-1.61-1.585v-0.018c0-0.954,0.729-1.567,1.61-1.567s1.711,0.622,1.711,1.576v0.019
		C373.805,223.371,372.976,224.011,372.094,224.011L372.094,224.011z M376.02,224.981h0.691v-2.664c0-0.873,0.594-1.458,1.396-1.458
		c0.818,0,1.288,0.54,1.288,1.403v2.719h0.691v-2.89c0-1.106-0.656-1.86-1.782-1.86c-0.801,0-1.286,0.403-1.593,0.906v-2.725h-0.691
		V224.981L376.02,224.981z M383.687,225.089c1.404,0,2.438-1.114,2.438-2.429v-0.018c0-1.314-1.024-2.411-2.421-2.411
		c-1.404,0-2.429,1.114-2.429,2.429v0.018C381.275,223.992,382.291,225.089,383.687,225.089L383.687,225.089z M383.704,224.47
		c-0.981,0-1.719-0.811-1.719-1.81v-0.018c0-0.981,0.692-1.802,1.701-1.802c0.98,0,1.729,0.82,1.729,1.819v0.018
		C385.415,223.659,384.712,224.47,383.704,224.47L383.704,224.47z M389.086,225.08c0.801,0,1.278-0.404,1.594-0.907v0.809h0.683
		v-4.651h-0.683v2.663c0,0.874-0.604,1.459-1.396,1.459c-0.819,0-1.287-0.54-1.287-1.404v-2.718h-0.692v2.889
		C387.305,224.326,387.961,225.08,389.086,225.08L389.086,225.08z M394.476,225.063c0.334,0,0.595-0.071,0.838-0.197v-0.593
		c-0.243,0.117-0.441,0.162-0.676,0.162c-0.468,0-0.782-0.208-0.782-0.775v-2.719h1.476v-0.61h-1.476v-1.404h-0.691v1.404h-0.648
		v0.61h0.648v2.809C393.164,224.694,393.73,225.063,394.476,225.063L394.476,225.063z M399.373,224.981h2.187
		c1.98,0,3.348-1.376,3.348-3.149v-0.018c0-1.773-1.367-3.131-3.348-3.131h-2.187V224.981L399.373,224.981z M401.56,219.338
		c1.594,0,2.61,1.1,2.61,2.494v0.019c0,1.395-1.017,2.476-2.61,2.476h-1.477v-4.988H401.56L401.56,219.338z M407.68,225.08
		c0.819,0,1.359-0.377,1.684-0.8v0.701h0.665v-2.844c0-0.594-0.161-1.044-0.477-1.358c-0.342-0.342-0.846-0.512-1.503-0.512
		c-0.675,0-1.18,0.151-1.691,0.386l0.206,0.566c0.432-0.197,0.864-0.343,1.414-0.343c0.873,0,1.386,0.434,1.386,1.271v0.162
		c-0.414-0.117-0.837-0.197-1.432-0.197c-1.18,0-1.988,0.52-1.988,1.501v0.018C405.943,224.586,406.815,225.08,407.68,225.08
		L407.68,225.08z M407.815,224.533c-0.631,0-1.171-0.343-1.171-0.928v-0.019c0-0.585,0.485-0.964,1.359-0.964
		c0.567,0,1.026,0.099,1.368,0.199v0.45C409.372,224.01,408.67,224.533,407.815,224.533L407.815,224.533z M411.568,224.981h0.691
		v-6.57h-0.691V224.981L411.568,224.981z M413.935,224.981h0.692v-6.57h-0.692V224.981L413.935,224.981z M417.624,225.08
		c0.82,0,1.36-0.377,1.684-0.8v0.701h0.665v-2.844c0-0.594-0.161-1.044-0.476-1.358c-0.342-0.342-0.846-0.512-1.503-0.512
		c-0.676,0-1.18,0.151-1.693,0.386l0.207,0.566c0.433-0.197,0.864-0.343,1.413-0.343c0.874,0,1.387,0.434,1.387,1.271v0.162
		c-0.414-0.117-0.837-0.197-1.431-0.197c-1.18,0-1.989,0.52-1.989,1.501v0.018C415.888,224.586,416.76,225.08,417.624,225.08
		L417.624,225.08z M417.759,224.533c-0.63,0-1.17-0.343-1.17-0.928v-0.019c0-0.585,0.486-0.964,1.36-0.964
		c0.566,0,1.026,0.099,1.368,0.199v0.45C419.317,224.01,418.615,224.533,417.759,224.533L417.759,224.533z M422.988,225.071
		c0.928,0,1.655-0.512,1.655-1.395v-0.018c0-0.837-0.772-1.116-1.492-1.332c-0.622-0.189-1.198-0.36-1.198-0.801v-0.019
		c0-0.387,0.351-0.676,0.899-0.676c0.451,0,0.946,0.171,1.379,0.451l0.313-0.522c-0.476-0.314-1.105-0.512-1.674-0.512
		c-0.918,0-1.583,0.53-1.583,1.331v0.019c0,0.854,0.809,1.106,1.538,1.313c0.613,0.171,1.162,0.351,1.162,0.819v0.018
		c0,0.45-0.405,0.739-0.963,0.739c-0.55,0-1.108-0.217-1.611-0.595l-0.351,0.496C421.585,224.812,422.322,225.071,422.988,225.071
		L422.988,225.071z M431.628,225.089c1.143,0,1.863-0.439,2.521-1.105l-0.469-0.459c-0.603,0.576-1.17,0.91-2.034,0.91
		c-1.386,0-2.438-1.145-2.438-2.603v-0.018c0-1.449,1.044-2.584,2.438-2.584c0.855,0,1.449,0.36,1.98,0.864l0.486-0.522
		c-0.63-0.593-1.314-0.997-2.457-0.997c-1.854,0-3.186,1.475-3.186,3.257v0.019C428.47,223.659,429.81,225.089,431.628,225.089
		L431.628,225.089z M437.307,225.089c1.405,0,2.439-1.114,2.439-2.429v-0.018c0-1.314-1.025-2.411-2.421-2.411
		c-1.404,0-2.43,1.114-2.43,2.429v0.018C434.896,223.992,435.912,225.089,437.307,225.089L437.307,225.089z M437.325,224.47
		c-0.981,0-1.719-0.811-1.719-1.81v-0.018c0-0.981,0.692-1.802,1.7-1.802c0.982,0,1.729,0.82,1.729,1.819v0.018
		C439.036,223.659,438.334,224.47,437.325,224.47L437.325,224.47z M442.707,225.08c0.801,0,1.279-0.404,1.594-0.907v0.809h0.684
		v-4.651h-0.684v2.663c0,0.874-0.604,1.459-1.396,1.459c-0.819,0-1.287-0.54-1.287-1.404v-2.718h-0.692v2.889
		C440.926,224.326,441.582,225.08,442.707,225.08L442.707,225.08z M446.542,224.981h0.692v-2.664c0-0.873,0.594-1.458,1.395-1.458
		c0.819,0,1.288,0.54,1.288,1.403v2.719h0.692v-2.89c0-1.106-0.656-1.86-1.782-1.86c-0.801,0-1.287,0.403-1.593,0.906v-0.808h-0.692
		V224.981L446.542,224.981z M453.642,225.063c0.334,0,0.595-0.071,0.838-0.197v-0.593c-0.243,0.117-0.441,0.162-0.676,0.162
		c-0.468,0-0.783-0.208-0.783-0.775v-2.719h1.477v-0.61h-1.477v-1.404h-0.691v1.404h-0.648v0.61h0.648v2.809
		C452.329,224.694,452.896,225.063,453.642,225.063L453.642,225.063z M457.71,224.209l-1.691-3.879h-0.765l2.114,4.635
		c-0.279,0.657-0.54,0.873-0.954,0.873c-0.297,0-0.504-0.054-0.728-0.171l-0.234,0.548c0.313,0.153,0.602,0.233,0.989,0.233
		c0.702,0,1.151-0.35,1.548-1.313l1.952-4.806h-0.737L457.71,224.209L457.71,224.209z M464.001,224.981h0.692v-4.051h1.467v-0.582
		h-1.476v-0.38c0-0.666,0.27-0.99,0.81-0.99c0.233,0,0.423,0.045,0.675,0.117v-0.603c-0.225-0.081-0.441-0.116-0.765-0.116
		c-0.423,0-0.766,0.125-0.998,0.359c-0.261,0.26-0.405,0.663-0.405,1.19v0.403h-0.639v0.601h0.639V224.981L464.001,224.981z
		 M467.043,224.981h0.692v-1.854c0-1.403,0.828-2.133,1.845-2.133h0.054v-0.745c-0.882-0.036-1.557,0.521-1.898,1.294v-1.213h-0.692
		V224.981L467.043,224.981z M472.614,225.089c1.404,0,2.438-1.114,2.438-2.429v-0.018c0-1.314-1.024-2.411-2.42-2.411
		c-1.404,0-2.43,1.114-2.43,2.429v0.018C470.202,223.992,471.218,225.089,472.614,225.089L472.614,225.089z M472.632,224.47
		c-0.981,0-1.72-0.811-1.72-1.81v-0.018c0-0.981,0.694-1.802,1.702-1.802c0.98,0,1.728,0.82,1.728,1.819v0.018
		C474.342,223.659,473.64,224.47,472.632,224.47L472.632,224.47z M476.304,224.981h0.692v-2.655c0-0.855,0.558-1.467,1.297-1.467
		c0.738,0,1.197,0.513,1.197,1.386v2.736h0.691v-2.683c0-0.918,0.576-1.439,1.279-1.439c0.756,0,1.206,0.504,1.206,1.403v2.719
		h0.692v-2.88c0-1.152-0.656-1.87-1.728-1.87c-0.81,0-1.306,0.413-1.638,0.925c-0.252-0.521-0.738-0.925-1.494-0.925
		c-0.783,0-1.198,0.422-1.504,0.88v-0.781h-0.692V224.981L476.304,224.981z M489.659,225.089c0.873,0,1.431-0.377,1.898-0.898
		l-0.44-0.414c-0.369,0.396-0.828,0.693-1.422,0.693c-0.973,0-1.71-0.802-1.71-1.81v-0.018c0-0.999,0.72-1.802,1.665-1.802
		c0.63,0,1.044,0.316,1.413,0.703l0.459-0.485c-0.433-0.459-0.981-0.827-1.863-0.827c-1.359,0-2.384,1.114-2.384,2.429v0.018
		C487.275,223.983,488.3,225.089,489.659,225.089L489.659,225.089z M492.702,224.981h0.691v-1.854c0-1.403,0.828-2.133,1.846-2.133
		h0.054v-0.745c-0.882-0.036-1.557,0.521-1.899,1.294v-1.213h-0.691V224.981L492.702,224.981z M497.507,225.08
		c0.82,0,1.36-0.377,1.685-0.8v0.701h0.665v-2.844c0-0.594-0.162-1.044-0.477-1.358c-0.342-0.342-0.846-0.512-1.503-0.512
		c-0.676,0-1.18,0.151-1.692,0.386l0.206,0.566c0.433-0.197,0.864-0.343,1.414-0.343c0.873,0,1.387,0.434,1.387,1.271v0.162
		c-0.414-0.117-0.837-0.197-1.432-0.197c-1.18,0-1.989,0.52-1.989,1.501v0.018C495.771,224.586,496.644,225.08,497.507,225.08
		L497.507,225.08z M497.644,224.533c-0.632,0-1.172-0.343-1.172-0.928v-0.019c0-0.585,0.486-0.964,1.36-0.964
		c0.567,0,1.026,0.099,1.368,0.199v0.45C499.2,224.01,498.498,224.533,497.644,224.533L497.644,224.533z M503.286,225.08
		c0.854,0,1.404-0.476,1.782-1.034v0.936h0.691v-6.568h-0.691v2.806c-0.36-0.521-0.918-0.987-1.782-0.987
		c-1.117,0-2.223,0.897-2.223,2.419v0.018C501.063,224.199,502.169,225.08,503.286,225.08L503.286,225.08z M503.412,224.461
		c-0.874,0-1.639-0.703-1.639-1.801v-0.018c0-1.125,0.737-1.792,1.639-1.792c0.864,0,1.683,0.721,1.683,1.792v0.018
		C505.095,223.731,504.276,224.461,503.412,224.461L503.412,224.461z M507.372,224.981h0.692v-6.57h-0.692V224.981L507.372,224.981z
		 M511.709,225.089c0.883,0,1.45-0.35,1.917-0.872l-0.431-0.387c-0.378,0.396-0.828,0.658-1.468,0.658
		c-0.828,0-1.539-0.568-1.639-1.577h3.69c0.009-0.08,0.009-0.134,0.009-0.224c0-1.359-0.791-2.456-2.169-2.456
		c-1.287,0-2.231,1.079-2.231,2.42v0.018C509.388,224.109,510.431,225.089,511.709,225.089L511.709,225.089z M510.089,222.4
		c0.09-0.91,0.702-1.586,1.512-1.586c0.929,0,1.414,0.738,1.486,1.586H510.089L510.089,222.4z M519.26,225.063
		c0.333,0,0.595-0.071,0.837-0.197v-0.593c-0.242,0.117-0.44,0.162-0.675,0.162c-0.468,0-0.783-0.208-0.783-0.775v-2.719h1.477
		v-0.61h-1.477v-1.404h-0.691v1.404h-0.648v0.61h0.648v2.809C517.947,224.694,518.513,225.063,519.26,225.063L519.26,225.063z
		 M523.328,225.089c1.405,0,2.438-1.114,2.438-2.429v-0.018c0-1.314-1.024-2.411-2.421-2.411c-1.403,0-2.429,1.114-2.429,2.429
		v0.018C520.917,223.992,521.933,225.089,523.328,225.089L523.328,225.089z M523.346,224.47c-0.98,0-1.719-0.811-1.719-1.81v-0.018
		c0-0.981,0.693-1.802,1.701-1.802c0.981,0,1.729,0.82,1.729,1.819v0.018C525.057,223.659,524.354,224.47,523.346,224.47
		L523.346,224.47z"/>
	<path fill="#717073" d="M400.471,214.181h0.692v-2.663c0-0.873,0.594-1.458,1.396-1.458c0.819,0,1.287,0.539,1.287,1.403v2.718
		h0.692v-2.889c0-1.106-0.656-1.861-1.781-1.861c-0.802,0-1.288,0.404-1.594,0.907v-2.725h-0.692V214.181L400.471,214.181z
		 M408.049,214.289c0.882,0,1.449-0.35,1.916-0.872l-0.431-0.387c-0.378,0.396-0.828,0.658-1.467,0.658
		c-0.829,0-1.54-0.568-1.64-1.577h3.69c0.009-0.08,0.009-0.134,0.009-0.225c0-1.358-0.791-2.456-2.168-2.456
		c-1.288,0-2.232,1.079-2.232,2.421v0.018C405.727,213.31,406.771,214.289,408.049,214.289L408.049,214.289z M406.428,211.601
		c0.09-0.91,0.702-1.586,1.514-1.586c0.927,0,1.413,0.738,1.484,1.586H406.428L406.428,211.601z M411.406,214.181h0.691v-6.569
		h-0.691V214.181L411.406,214.181z M413.71,215.621h0.692v-2.33c0.359,0.522,0.918,0.989,1.782,0.989
		c1.125,0,2.223-0.899,2.223-2.42v-0.019c0-1.529-1.106-2.411-2.223-2.411c-0.855,0-1.404,0.477-1.782,1.034v-0.935h-0.692V215.621
		L413.71,215.621z M416.058,213.661c-0.863,0-1.683-0.72-1.683-1.8v-0.019c0-1.063,0.819-1.793,1.683-1.793
		c0.884,0,1.64,0.703,1.64,1.802v0.018C417.697,212.995,416.959,213.661,416.058,213.661L416.058,213.661z M421.224,214.271
		c0.929,0,1.656-0.513,1.656-1.395v-0.018c0-0.837-0.772-1.116-1.494-1.332c-0.621-0.189-1.196-0.36-1.196-0.801v-0.019
		c0-0.387,0.351-0.676,0.899-0.676c0.45,0,0.946,0.171,1.377,0.451l0.315-0.522c-0.477-0.314-1.107-0.512-1.674-0.512
		c-0.918,0-1.583,0.53-1.583,1.331v0.018c0,0.855,0.809,1.107,1.537,1.314c0.612,0.171,1.162,0.351,1.162,0.818v0.019
		c0,0.45-0.404,0.739-0.964,0.739c-0.549,0-1.106-0.218-1.609-0.596l-0.352,0.496C419.82,214.011,420.558,214.271,421.224,214.271
		L421.224,214.271z M428.82,214.28c0.854,0,1.403-0.477,1.782-1.034v0.935h0.691v-6.567h-0.691v2.806
		c-0.36-0.521-0.918-0.988-1.782-0.988c-1.116,0-2.223,0.898-2.223,2.42v0.018C426.598,213.399,427.704,214.28,428.82,214.28
		L428.82,214.28z M428.946,213.661c-0.873,0-1.64-0.703-1.64-1.801v-0.019c0-1.125,0.739-1.792,1.64-1.792
		c0.863,0,1.684,0.722,1.684,1.792v0.019C430.63,212.931,429.81,213.661,428.946,213.661L428.946,213.661z M432.843,214.181h0.692
		v-1.854c0-1.404,0.828-2.133,1.845-2.133h0.055v-0.745c-0.883-0.036-1.558,0.521-1.899,1.294v-1.213h-0.692V214.181
		L432.843,214.181z M436.506,208.511h0.791v-0.763h-0.791V208.511L436.506,208.511z M436.551,214.181h0.692v-4.65h-0.692V214.181
		L436.551,214.181z M440.412,214.217h0.612l2.023-4.687h-0.747l-1.573,3.861l-1.566-3.861h-0.766L440.412,214.217L440.412,214.217z
		 M445.902,214.289c0.882,0,1.448-0.35,1.916-0.872l-0.432-0.387c-0.378,0.396-0.827,0.658-1.467,0.658
		c-0.829,0-1.54-0.568-1.639-1.577h3.689c0.01-0.08,0.01-0.134,0.01-0.225c0-1.358-0.791-2.456-2.169-2.456
		c-1.287,0-2.231,1.079-2.231,2.421v0.018C443.58,213.31,444.623,214.289,445.902,214.289L445.902,214.289z M444.281,211.601
		c0.09-0.91,0.702-1.586,1.513-1.586c0.927,0,1.413,0.738,1.485,1.586H444.281L444.281,211.601z M453.435,214.271
		c0.928,0,1.655-0.513,1.655-1.395v-0.018c0-0.837-0.772-1.116-1.493-1.332c-0.621-0.189-1.197-0.36-1.197-0.801v-0.019
		c0-0.387,0.351-0.676,0.899-0.676c0.451,0,0.946,0.171,1.378,0.451l0.314-0.522c-0.477-0.314-1.106-0.512-1.674-0.512
		c-0.918,0-1.583,0.53-1.583,1.331v0.018c0,0.855,0.809,1.107,1.538,1.314c0.612,0.171,1.162,0.351,1.162,0.818v0.019
		c0,0.45-0.405,0.739-0.964,0.739c-0.55,0-1.107-0.218-1.61-0.596l-0.352,0.496C452.031,214.011,452.769,214.271,453.435,214.271
		L453.435,214.271z M457.844,214.262c0.333,0,0.595-0.07,0.837-0.196v-0.595c-0.242,0.118-0.44,0.163-0.675,0.163
		c-0.468,0-0.783-0.208-0.783-0.774v-2.719h1.477v-0.61h-1.477v-1.404h-0.691v1.404h-0.648v0.61h0.648v2.809
		C456.531,213.895,457.097,214.262,457.844,214.262L457.844,214.262z M461.633,214.28c0.802,0,1.279-0.404,1.595-0.907v0.808h0.683
		v-4.65h-0.683v2.663c0,0.874-0.604,1.459-1.396,1.459c-0.819,0-1.287-0.54-1.287-1.404v-2.718h-0.691v2.889
		C459.853,213.526,460.508,214.28,461.633,214.28L461.633,214.28z M467.42,214.28c0.855,0,1.405-0.477,1.783-1.034v0.935h0.692
		v-6.567h-0.692v2.806c-0.36-0.521-0.918-0.988-1.783-0.988c-1.116,0-2.222,0.898-2.222,2.42v0.018
		C465.198,213.399,466.304,214.28,467.42,214.28L467.42,214.28z M467.546,213.661c-0.873,0-1.638-0.703-1.638-1.801v-0.019
		c0-1.125,0.737-1.792,1.638-1.792c0.865,0,1.685,0.722,1.685,1.792v0.019C469.23,212.931,468.411,213.661,467.546,213.661
		L467.546,213.661z M473.478,214.289c0.883,0,1.449-0.35,1.916-0.872l-0.431-0.387c-0.378,0.396-0.828,0.658-1.468,0.658
		c-0.828,0-1.539-0.568-1.638-1.577h3.689c0.009-0.08,0.009-0.134,0.009-0.225c0-1.358-0.791-2.456-2.169-2.456
		c-1.286,0-2.23,1.079-2.23,2.421v0.018C471.156,213.31,472.199,214.289,473.478,214.289L473.478,214.289z M471.857,211.601
		c0.09-0.91,0.702-1.586,1.512-1.586c0.928,0,1.414,0.738,1.486,1.586H471.857L471.857,211.601z M476.772,214.181h0.691v-2.663
		c0-0.873,0.594-1.458,1.396-1.458c0.818,0,1.288,0.539,1.288,1.403v2.718h0.691v-2.889c0-1.106-0.656-1.861-1.782-1.861
		c-0.801,0-1.286,0.404-1.593,0.907v-0.808h-0.691V214.181L476.772,214.181z M483.872,214.262c0.333,0,0.594-0.07,0.837-0.196
		v-0.595c-0.243,0.118-0.44,0.163-0.675,0.163c-0.468,0-0.783-0.208-0.783-0.774v-2.719h1.477v-0.61h-1.477v-1.404h-0.691v1.404
		h-0.648v0.61h0.648v2.809C482.56,213.895,483.125,214.262,483.872,214.262L483.872,214.262z"/>
	<path fill="#003663" d="M346.589,214.181h0.71v-2.223h1.53c1.342,0,2.475-0.7,2.475-2.06v-0.019c0-1.243-0.935-1.997-2.357-1.997
		h-2.357V214.181L346.589,214.181z M347.299,211.313v-2.774h1.594c1.018,0,1.692,0.469,1.692,1.369v0.018
		c0,0.828-0.685,1.388-1.729,1.388H347.299L347.299,211.313z M353.779,214.28c0.818,0,1.359-0.377,1.684-0.8v0.7h0.665v-2.843
		c0-0.594-0.162-1.044-0.477-1.358c-0.342-0.343-0.846-0.513-1.503-0.513c-0.676,0-1.18,0.152-1.692,0.387l0.207,0.566
		c0.432-0.198,0.864-0.343,1.413-0.343c0.874,0,1.387,0.433,1.387,1.27v0.162c-0.414-0.116-0.838-0.196-1.432-0.196
		c-1.18,0-1.988,0.52-1.988,1.501v0.018C352.043,213.786,352.915,214.28,353.779,214.28L353.779,214.28z M353.914,213.733
		c-0.63,0-1.17-0.343-1.17-0.928v-0.019c0-0.585,0.486-0.964,1.359-0.964c0.566,0,1.026,0.099,1.368,0.199v0.449
		C355.472,213.21,354.771,213.733,353.914,213.733L353.914,213.733z M357.605,214.181h0.691v-1.854c0-1.404,0.828-2.133,1.846-2.133
		h0.054v-0.745c-0.882-0.036-1.558,0.521-1.899,1.294v-1.213h-0.691V214.181L357.605,214.181z M362.806,214.262
		c0.333,0,0.595-0.07,0.838-0.196v-0.595c-0.243,0.118-0.441,0.163-0.676,0.163c-0.468,0-0.783-0.208-0.783-0.774v-2.719h1.477
		v-0.61h-1.477v-1.404h-0.691v1.404h-0.648v0.61h0.648v2.809C361.493,213.895,362.059,214.262,362.806,214.262L362.806,214.262z
		 M364.886,214.181h0.692v-2.663c0-0.873,0.594-1.458,1.395-1.458c0.819,0,1.288,0.539,1.288,1.403v2.718h0.692v-2.889
		c0-1.106-0.656-1.861-1.782-1.861c-0.801,0-1.287,0.404-1.593,0.907v-0.808h-0.692V214.181L364.886,214.181z M372.463,214.289
		c0.883,0,1.45-0.35,1.917-0.872l-0.432-0.387c-0.377,0.396-0.828,0.658-1.467,0.658c-0.828,0-1.539-0.568-1.639-1.577h3.69
		c0.009-0.08,0.009-0.134,0.009-0.225c0-1.358-0.791-2.456-2.169-2.456c-1.287,0-2.231,1.079-2.231,2.421v0.018
		C370.142,213.31,371.185,214.289,372.463,214.289L372.463,214.289z M370.843,211.601c0.09-0.91,0.702-1.586,1.513-1.586
		c0.927,0,1.414,0.738,1.485,1.586H370.843L370.843,211.601z M375.758,214.181h0.692v-1.854c0-1.404,0.828-2.133,1.844-2.133h0.054
		v-0.745c-0.882-0.036-1.557,0.521-1.897,1.294v-1.213h-0.692V214.181L375.758,214.181z M380.941,214.271
		c0.928,0,1.654-0.513,1.654-1.395v-0.018c0-0.837-0.771-1.116-1.492-1.332c-0.621-0.189-1.197-0.36-1.197-0.801v-0.019
		c0-0.387,0.351-0.676,0.899-0.676c0.45,0,0.946,0.171,1.377,0.451l0.315-0.522c-0.477-0.314-1.107-0.512-1.674-0.512
		c-0.918,0-1.583,0.53-1.583,1.331v0.018c0,0.855,0.809,1.107,1.538,1.314c0.611,0.171,1.162,0.351,1.162,0.818v0.019
		c0,0.45-0.406,0.739-0.965,0.739c-0.549,0-1.106-0.218-1.61-0.596l-0.351,0.496C379.537,214.011,380.275,214.271,380.941,214.271
		L380.941,214.271z M383.885,214.181h0.691v-2.663c0-0.873,0.595-1.458,1.396-1.458c0.819,0,1.288,0.539,1.288,1.403v2.718h0.691
		v-2.889c0-1.106-0.656-1.861-1.781-1.861c-0.801,0-1.288,0.404-1.594,0.907v-2.725h-0.691V214.181L383.885,214.181z
		 M389.446,208.511h0.791v-0.763h-0.791V208.511L389.446,208.511z M389.491,214.181h0.692v-4.65h-0.692V214.181L389.491,214.181z
		 M391.795,215.621h0.692v-2.33c0.359,0.522,0.919,0.989,1.783,0.989c1.125,0,2.222-0.899,2.222-2.42v-0.019
		c0-1.529-1.106-2.411-2.222-2.411c-0.855,0-1.405,0.477-1.783,1.034v-0.935h-0.692V215.621L391.795,215.621z M394.145,213.661
		c-0.865,0-1.685-0.72-1.685-1.8v-0.019c0-1.063,0.819-1.793,1.685-1.793c0.882,0,1.638,0.703,1.638,1.802v0.018
		C395.782,212.995,395.044,213.661,394.145,213.661L394.145,213.661z"/>
	<path fill="#CA2032" d="M341.585,212.401h0.386l0.217-4.015v-0.504h-0.81v0.504L341.585,212.401L341.585,212.401z M341.369,214.181
		h0.827v-0.942h-0.827V214.181L341.369,214.181z"/>
	<path fill="#003663" d="M308.842,214.289c1.144,0,1.863-0.439,2.521-1.105l-0.468-0.459c-0.604,0.575-1.171,0.909-2.034,0.909
		c-1.387,0-2.439-1.144-2.439-2.602v-0.018c0-1.449,1.044-2.584,2.439-2.584c0.854,0,1.448,0.36,1.979,0.864l0.486-0.521
		c-0.63-0.595-1.314-0.998-2.457-0.998c-1.854,0-3.186,1.475-3.186,3.257v0.018C305.684,212.859,307.024,214.289,308.842,214.289
		L308.842,214.289z M314.522,214.289c1.403,0,2.438-1.115,2.438-2.429v-0.019c0-1.313-1.025-2.411-2.42-2.411
		c-1.405,0-2.43,1.115-2.43,2.43v0.018C312.11,213.192,313.126,214.289,314.522,214.289L314.522,214.289z M314.54,213.67
		c-0.982,0-1.72-0.811-1.72-1.81v-0.019c0-0.98,0.692-1.801,1.702-1.801c0.98,0,1.728,0.82,1.728,1.819v0.018
		C316.25,212.859,315.548,213.67,314.54,213.67L314.54,213.67z M318.212,214.181h0.692v-2.654c0-0.855,0.558-1.467,1.297-1.467
		c0.738,0,1.197,0.513,1.197,1.386v2.735h0.691v-2.682c0-0.918,0.576-1.439,1.279-1.439c0.756,0,1.206,0.504,1.206,1.403v2.718
		h0.691v-2.88c0-1.151-0.655-1.87-1.727-1.87c-0.81,0-1.306,0.413-1.638,0.926c-0.252-0.521-0.738-0.926-1.494-0.926
		c-0.783,0-1.198,0.423-1.504,0.881v-0.781h-0.692V214.181L318.212,214.181z M326.771,214.181h0.691v-2.654
		c0-0.855,0.559-1.467,1.297-1.467s1.197,0.513,1.197,1.386v2.735h0.692v-2.682c0-0.918,0.575-1.439,1.278-1.439
		c0.756,0,1.206,0.504,1.206,1.403v2.718h0.692v-2.88c0-1.151-0.656-1.87-1.728-1.87c-0.811,0-1.306,0.413-1.639,0.926
		c-0.251-0.521-0.737-0.926-1.493-0.926c-0.784,0-1.198,0.423-1.504,0.881v-0.781h-0.691V214.181L326.771,214.181z M335.348,208.511
		h0.791v-0.763h-0.791V208.511L335.348,208.511z M335.393,214.181h0.692v-4.65h-0.692V214.181L335.393,214.181z M339.253,214.262
		c0.333,0,0.594-0.07,0.837-0.196v-0.595c-0.243,0.118-0.44,0.163-0.675,0.163c-0.468,0-0.783-0.208-0.783-0.774v-2.719h1.477v-0.61
		h-1.477v-1.404h-0.691v1.404h-0.648v0.61h0.648v2.809C337.94,213.895,338.506,214.262,339.253,214.262L339.253,214.262z"/>
	<path fill="#717073" d="M288.369,214.181h0.718v-5.643h2.115v-0.655h-4.948v0.655h2.115V214.181L288.369,214.181z M292.275,214.181
		h0.69v-2.663c0-0.873,0.596-1.458,1.396-1.458c0.818,0,1.288,0.539,1.288,1.403v2.718h0.69v-2.889c0-1.106-0.654-1.861-1.781-1.861
		c-0.801,0-1.286,0.404-1.594,0.907v-2.725h-0.69V214.181L292.275,214.181z M299.853,214.289c0.882,0,1.448-0.35,1.917-0.872
		l-0.433-0.387c-0.378,0.396-0.828,0.658-1.467,0.658c-0.828,0-1.54-0.568-1.639-1.577h3.689c0.009-0.08,0.009-0.134,0.009-0.225
		c0-1.358-0.79-2.456-2.168-2.456c-1.287,0-2.23,1.079-2.23,2.421v0.018C297.531,213.31,298.574,214.289,299.853,214.289
		L299.853,214.289z M298.231,211.601c0.09-0.91,0.702-1.586,1.513-1.586c0.927,0,1.414,0.738,1.486,1.586H298.231L298.231,211.601z"
		/>
</g>
</svg>
